<?xml version="1.0" encoding="UTF-8" standalone="no"?>
<!-- Created with Inkscape (http://www.inkscape.org/) -->

<svg
   width="211.80061mm"
   height="104.17238mm"
   viewBox="0 0 211.80061 104.17238"
   version="1.1"
   id="svg5"
   inkscape:version="1.1.2 (0a00cf5339, 2022-02-04)"
   sodipodi:docname="color_quantization_live_oak.svg"
   xmlns:inkscape="http://www.inkscape.org/namespaces/inkscape"
   xmlns:sodipodi="http://sodipodi.sourceforge.net/DTD/sodipodi-0.dtd"
   xmlns="http://www.w3.org/2000/svg"
   xmlns:svg="http://www.w3.org/2000/svg">
  <sodipodi:namedview
     id="namedview7"
     pagecolor="#ffffff"
     bordercolor="#666666"
     borderopacity="1.0"
     inkscape:pageshadow="2"
     inkscape:pageopacity="0.0"
     inkscape:pagecheckerboard="0"
     inkscape:document-units="mm"
     showgrid="false"
     fit-margin-top="0"
     fit-margin-left="0"
     fit-margin-right="0"
     fit-margin-bottom="0"
     inkscape:zoom="0.73940797"
     inkscape:cx="-169.05417"
     inkscape:cy="186.6358"
     inkscape:window-width="1920"
     inkscape:window-height="1012"
     inkscape:window-x="0"
     inkscape:window-y="0"
     inkscape:window-maximized="1"
     inkscape:current-layer="layer1" />
  <defs
     id="defs2" />
  <g
     inkscape:label="Layer 1"
     inkscape:groupmode="layer"
     id="layer1"
     transform="translate(-2.323357,-68.724008)">
    <path
       style="fill:#000000;stroke-width:0.352778"
       d="m 140.36296,172.31319 -0.833,-0.58345 -0.68213,0.426 -0.68214,0.426 -1.24738,-0.41167 -1.24738,-0.41168 -1.15491,0.18742 -1.15492,0.18742 -0.4032,-0.40321 -0.40321,-0.4032 -0.70076,0.43764 -0.70077,0.43763 -0.90804,-0.59496 -0.90803,-0.59497 -0.29581,0.47863 -0.2958,0.47862 -3.99562,-0.029 c -2.19758,-0.0159 -4.90842,-0.0585 -6.02408,-0.0945 l -2.02848,-0.0656 v -0.30003 c 0,-0.45628 0.96793,-0.66258 3.98616,-0.84962 l 2.75144,-0.1705 0.19991,0.52096 0.19991,0.52096 1.28199,-0.21248 c 0.70509,-0.11687 2.27371,-0.51943 3.48582,-0.89459 l 2.20385,-0.68209 1.39179,0.22255 1.39179,0.22256 1.16686,-1.25942 1.16687,-1.25942 1.71764,0.37316 1.71764,0.37315 0.8566,-0.39029 c 0.47113,-0.21467 1.1645,-0.3903 1.54082,-0.3903 h 0.68422 l 0.5159,-1.23472 c 0.28375,-0.6791 0.68275,-1.23472 0.88668,-1.23472 0.20393,0 0.37078,-0.23813 0.37078,-0.52917 v -0.52916 h -0.85391 -0.85392 l -0.2355,1.07223 -0.23551,1.07224 -0.76266,-0.22099 c -1.04415,-0.30256 -3.20692,-1.003 -3.34443,-1.08314 -0.19524,-0.11378 2.46799,-3.47954 2.87057,-3.6278 0.21151,-0.0779 0.68149,-0.41825 1.04438,-0.75634 l 0.65981,-0.6147 -0.44785,-0.71711 -0.44784,-0.71712 1.17423,-2.40711 1.17424,-2.40711 0.24045,-2.99861 0.24045,-2.99861 -0.56636,-0.88195 c -0.3115,-0.48507 -0.73606,-1.19944 -0.94346,-1.5875 l -0.37708,-0.70555 -1.01989,-0.0587 c -0.56094,-0.0323 -1.5392,-0.26683 -2.17392,-0.52115 l -1.15402,-0.46241 -0.69327,0.43295 c -0.93592,0.58449 -2.14945,0.54523 -3.06966,-0.0993 l -0.75992,-0.53227 -0.11233,-0.75462 c -0.0618,-0.41504 -0.36921,-0.91557 -0.68319,-1.11229 l -0.57086,-0.35767 -0.82786,0.77127 -0.82786,0.77127 -0.38294,-0.14695 c -0.21061,-0.0808 -0.76671,0.0584 -1.23577,0.30947 l -0.85283,0.45642 -1.08773,-0.17651 -1.08773,-0.17652 -1.66883,0.78445 -1.66884,0.78444 -0.35399,0.66145 c -0.1947,0.36379 -0.51128,0.66144 -0.70352,0.66144 -0.19224,0 -1.13916,0.58951 -2.10426,1.31002 l -1.75472,1.31003 v 0.81771 0.81772 l -0.52228,0.20041 -0.52228,0.20042 -0.3577,1.28782 c -0.19673,0.7083 -0.35858,1.9625 -0.35966,2.78712 l -0.002,1.49931 h -0.28222 c -0.15523,0 -0.46079,-0.17857 -0.67904,-0.39682 l -0.39681,-0.39681 -1.63945,0.24585 -1.63945,0.24585 -0.63603,0.72423 c -2.08186,2.37054 -5.59644,5.57492 -6.1146,5.57492 -0.27362,0 -0.79991,0.34042 -1.16954,0.75649 -0.98195,1.10535 -3.916117,2.30664 -7.371061,3.0178 l -3.029846,0.62367 -0.956399,-0.59481 c -0.526016,-0.32714 -1.680171,-0.98651 -2.564789,-1.46526 l -1.608395,-0.87046 -2.458911,0.46852 c -1.352402,0.25769 -3.366131,0.73227 -4.474951,1.05461 l -2.01604,0.58608 -0.705655,-0.22397 c -0.388108,-0.12318 -1.893421,-0.24238 -3.345134,-0.26489 l -2.63948,-0.0409 -0.876825,0.46926 -0.876822,0.46927 0.07475,0.74133 0.07475,0.74133 -3.175,0.2279 -3.175,0.2279 -1.940278,-0.54567 -1.940277,-0.54567 -0.440973,-0.5434 -0.440972,-0.54341 v 0.63641 0.6364 l -2.557639,-0.17037 -2.557639,-0.17037 -1.5875,0.47624 c -0.873125,0.26194 -2.8575,0.73362 -4.409722,1.04818 -1.552222,0.31457 -3.23487,0.72399 -3.739215,0.90983 l -0.91699,0.33788 -6.214883,-0.173 -6.214882,-0.17299 -0.570285,-0.31915 -0.570284,-0.31915 -2.406785,0.41284 -2.406785,0.41284 -0.827168,0.92842 -0.827168,0.92842 -2.822222,0.0657 c -1.552222,0.0362 -3.17941,0.0416 -3.615972,0.0121 l -0.79375,-0.0537 v -0.52917 -0.52916 h 0.672177 0.672179 l 1.532683,-1.28052 c 1.486091,-1.2416 1.707724,-1.78003 0.683223,-1.65981 -0.273176,0.0321 -0.906523,-0.0975 -1.407438,-0.28799 l -0.910756,-0.34627 -7.079904,0.009 c -3.8939473,0.005 -7.3312027,0.10499 -7.6383459,0.22286 l -0.5584423,0.21429 -0.029739,-2.11267 -0.029739,-2.11267 1.1380227,0.35888 c 0.6259123,0.19738 1.9317725,0.51598 2.9019114,0.70801 0.9701389,0.19202 2.0145139,0.57397 2.3208337,0.84877 0.7783058,0.69824 1.5150074,0.62313 2.2902294,-0.23348 l 0.663472,-0.73313 4.448797,0.24605 4.448796,0.24604 0.763243,-0.24224 0.763242,-0.24225 v -0.89488 -0.89489 l 2.078136,-2.03346 c 1.142975,-1.1184 2.181265,-2.35838 2.307311,-2.75552 l 0.229174,-0.72206 -0.798306,-0.55915 c -1.01562,-0.71137 -2.004953,-0.71148 -2.790803,-2.9e-4 l -0.617545,0.55887 -0.595208,-0.9084 -0.595208,-0.9084 -1.460859,-0.3932 -1.460859,-0.3932 -1.234722,-1.3228 c -0.679097,-0.72753 -1.59519,-1.5119 -2.035763,-1.74302 l -0.801041,-0.42024 -0.367716,0.22727 -0.367717,0.22725 -0.669218,-0.60563 -0.669219,-0.60563 -1.303725,0.24458 -1.3037256,0.24458 -0.9056076,1.03205 -0.9056081,1.03205 H 7.2244461 6.5642676 l -2.0834858,1.5845 -2.0834858,1.58451 v -1.93728 -1.93729 h 0.4728202 c 0.2600511,0 1.4407583,-0.48368 2.6237938,-1.07485 l 2.1509738,-1.07485 1.0803728,-1.23048 1.0803728,-1.23048 -0.0058,-0.78147 c -0.0032,-0.42981 -0.364363,-1.41648 -0.8026026,-2.19259 l -0.7967991,-1.41111 -0.9169354,-0.10735 -0.9169355,-0.10734 -0.593806,0.5938 -0.5938061,0.59381 0.1953574,0.50909 c 0.1074466,0.28 0.022644,1.195 -0.1884501,2.03333 l -0.3838075,1.52424 -1.2393437,1.18438 -1.2393438,1.18437 0.1726552,-1.41111 c 0.09496,-0.77611 0.4065868,-2.21368 0.6925029,-3.1946 l 0.5198477,-1.7835 1.2122741,-1.56789 c 0.6667508,-0.86234 1.8005117,-2.14733 2.5194682,-2.85554 0.7189569,-0.7082 1.3071941,-1.49236 1.3071941,-1.74257 0,-0.25022 -0.7846197,-1.17891 -1.7435996,-2.06375 l -1.7435994,-1.60881 -1.2749509,-0.39458 -1.274951,-0.39458 0.1852564,0.48277 0.1852563,0.48277 H 2.7687484 2.4567857 l 0.019842,-2.95261 0.019842,-2.95262 0.7032001,0.18389 0.7032001,0.18389 -0.1648227,-0.49447 c -0.090653,-0.27195 -0.3897186,-0.49455 -0.6645912,-0.49465 l -0.4997686,-1.8e-4 -0.060811,-3.4433 -0.060811,-3.4433 0.3253946,0.20111 0.3253946,0.2011 v 1.34095 1.34094 l 1.1465277,1.20977 1.1465278,1.20976 0.8188664,-0.41171 0.8188667,-0.41173 1.2096055,-2.40416 c 0.6652832,-1.32229 1.2096057,-2.74052 1.2096057,-3.15162 v -0.74746 l -0.7325429,-0.78629 -0.7325434,-0.7863 -1.0133129,-0.20266 C 6.41713,116.8152 5.690295,116.42472 5.3592635,116.05893 5.028232,115.69315 4.5438674,115.39387 4.2828976,115.39387 H 3.8084071 l -0.011737,-0.97014 -0.011737,-0.97014 -0.7155364,0.85965 -0.7155365,0.85966 0.1048315,-2.35636 0.1048314,-2.35635 0.5632524,0.17877 0.5632524,0.17877 0.5453857,-0.62235 c 0.299962,-0.34229 0.6289943,-1.0986 0.7311828,-1.68068 0.3158194,-1.79896 0.6340686,-3.11189 0.831904,-3.43199 l 0.1893863,-0.30644 0.4446697,0.36905 0.4446697,0.36904 0.23778,3.91499 0.2377796,3.91499 0.5611397,1.11296 c 0.3086265,0.61213 0.9695917,1.54952 1.468812,2.0831 l 0.9076716,0.97014 h 1.361145 1.361145 l 0.85054,-0.85054 0.850538,-0.85054 1.161899,-0.24853 c 0.639044,-0.13669 1.350188,-0.39997 1.58032,-0.58506 l 0.418422,-0.33652 0.756896,0.40508 0.756896,0.40508 2.35246,-0.18454 c 3.445215,-0.27026 4.19165,-0.40637 4.744385,-0.8651 0.273648,-0.22711 1.038037,-0.51805 1.698642,-0.64654 1.386594,-0.26969 4.905266,-2.15373 4.905266,-2.62647 0,-0.17551 0.238125,-0.3191 0.529167,-0.3191 h 0.529167 v -0.5622 -0.56219 l 0.617361,-0.17134 c 0.724039,-0.20095 1.88494,-1.76665 2.962832,-3.99594 l 0.767578,-1.5875 0.148569,0.44097 c 0.226042,0.67093 1.088562,0.52674 1.582751,-0.26458 l 0.440627,-0.70556 h 0.620698 0.620695 v -0.36385 c 0,-0.20012 -0.24825,-0.45911 -0.551663,-0.57554 l -0.551664,-0.2117 -0.905037,0.41237 c -0.497769,0.22679 -0.967631,0.34977 -1.044138,0.27325 -0.29126,-0.29126 0.32203,-1.28 0.909627,-1.46649 l 0.614172,-0.19493 0.0032,-0.96503 0.0032,-0.965025 0.941698,-1.94027 c 1.139018,-2.346838 2.090509,-3.527777 2.842352,-3.527777 h 0.560525 v -0.379915 c 0,-0.480674 1.942539,-2.442308 2.418535,-2.442308 0.195877,0 0.456911,-0.3175 0.580076,-0.705555 l 0.223937,-0.705556 h 0.505393 0.505393 v -1.074369 -1.074368 l 0.812546,-0.777715 c 0.446899,-0.427743 1.562682,-1.213107 2.479516,-1.745254 l 1.666974,-0.967539 0.188799,-0.619961 c 0.10384,-0.340979 0.441805,-1.135898 0.751036,-1.766489 l 0.562233,-1.146528 h 0.473614 0.473615 v -0.626997 -0.626998 l -1.094609,-0.960502 -1.09461,-0.960503 h -1.001236 -1.00124 l -0.223809,-0.362133 c -0.123095,-0.199174 -0.410277,-0.339115 -0.638182,-0.31098 -0.227902,0.02813 -0.771557,0.03235 -1.20812,0.0094 l -0.79375,-0.0418 v -0.484377 -0.484376 l -1.507744,0.0434 -1.507744,0.0434 -0.873506,0.828194 c -0.480427,0.455507 -2.143506,1.419821 -3.695728,2.14292 -1.552222,0.723099 -3.495414,1.740522 -4.318206,2.26094 -0.822791,0.520418 -2.708258,1.427781 -4.189927,2.016363 l -2.693943,1.070149 -0.638538,-0.577869 -0.638538,-0.577869 -0.389357,0.240636 -0.389358,0.240636 0.215064,0.677605 0.215063,0.677605 -0.577204,0.221493 -0.577204,0.221494 -0.39962,-0.39962 c -0.219842,-0.219826 -0.586787,-0.399655 -0.815483,-0.399655 h -0.415812 l -0.438376,1.058334 c -0.241107,0.582083 -0.596373,1.058333 -0.78948,1.058333 h -0.351105 l 0.177259,0.92727 0.177259,0.927271 -1.224752,1.189396 -1.224752,1.189397 h -0.895344 -0.895343 l 0.174449,2.028472 0.174449,2.028472 -0.634147,1.258323 c -0.348782,0.69207 -0.883876,1.46557 -1.189098,1.71889 l -0.554951,0.46056 v 1.01514 1.015135 h -0.366129 -0.36613 l 0.101547,0.97014 0.101547,0.97014 -1.146528,0.11054 c -0.63059,0.0608 -1.146528,0.0601 -1.146528,-0.002 0,-0.2846 1.745926,-4.884335 2.117459,-5.578545 0.229867,-0.42951 0.637057,-2.134511 0.904867,-3.788896 l 0.486929,-3.007984 0.538428,-0.821746 0.538428,-0.821745 v -1.239913 -1.240413 l -0.849086,-0.213107 -0.849087,-0.213107 -0.738413,0.395186 c -0.406128,0.217353 -0.738414,0.546222 -0.738414,0.730819 0,0.184597 -0.562312,0.570581 -1.249583,0.857741 l -1.249584,0.522109 -0.994613,-0.198923 -0.994614,-0.198923 -1.107193,0.572552 c -0.608956,0.314903 -1.107192,0.695763 -1.107192,0.846354 0,0.150591 -0.5571786,0.289595 -1.2381742,0.308899 l -1.2381742,0.0351 -0.6139092,0.665269 C 6.1701044,91.239436 4.9543955,92.134189 4.1541329,92.288306 3.7014622,92.375486 3.2089971,92.644367 3.0597661,92.885828 2.6158145,93.604157 2.3759646,93.010966 2.619007,91.795754 L 2.8456177,90.66268 3.8561791,90.460568 4.8667404,90.258455 v -0.649046 -0.649046 l 0.7224422,-0.38664 c 0.3973433,-0.212651 0.8696641,-0.773862 1.0496019,-1.247134 l 0.3271594,-0.860495 h 0.5521833 c 0.7524179,0 2.6402798,-1.434781 2.6402798,-2.006621 V 83.996649 H 9.6907344 c -0.25722,0 -0.8405172,-0.396875 -1.2962162,-0.881944 -0.4556989,-0.48507 -1.078684,-0.888396 -1.3844107,-0.896282 -0.3057268,-0.0079 -1.0805711,-0.463328 -1.7218761,-1.012094 l -1.166009,-0.997756 0.7009991,-0.183316 0.700999,-0.183315 1.1705657,0.790158 c 0.643811,0.434587 1.7633555,0.984 2.4878771,1.220918 l 1.3173117,0.43076 0.87281,1.115244 0.872809,1.115244 -0.514427,0.287888 c -0.282934,0.158338 -0.514427,0.43875 -0.514427,0.623136 0,0.520377 0.922328,0.39503 1.409105,-0.191501 l 0.437164,-0.526749 1.410042,0.225475 1.410041,0.225474 -0.228677,-0.720497 -0.228677,-0.720497 0.805919,0.004 c 0.443255,0.0022 1.679043,-0.258044 2.746196,-0.578302 1.067153,-0.320258 2.575278,-0.654121 3.351389,-0.741918 l 1.411111,-0.159631 0.352778,-0.476639 c 0.405537,-0.547924 1.886576,-0.981833 3.784974,-1.108908 0.723542,-0.04843 1.519403,-0.257258 1.768581,-0.464057 0.249177,-0.2068 1.244689,-0.559757 2.212247,-0.78435 1.982387,-0.460159 3.096308,-0.91877 4.45949,-1.836009 0.515021,-0.34654 1.193638,-0.630074 1.508037,-0.630074 h 0.571634 l 0.327159,-0.860495 0.327159,-0.860495 0.810637,-0.42389 c 0.445851,-0.23314 1.782946,-1.45803 2.971321,-2.721979 l 2.160686,-2.298088 0.582009,0.223338 0.582009,0.223338 -0.223297,0.889691 -0.223302,0.889691 h 0.349896 c 0.192444,0 0.426491,-0.400664 0.5201,-0.890364 l 0.170205,-0.890364 -0.311221,-0.192346 -0.31122,-0.192345 0.210393,-0.340424 0.210393,-0.340423 -0.917384,0.166353 -0.917381,0.166353 0.2228,-0.360498 0.2228,-0.360498 1.924939,0.171255 c 1.806505,0.160719 3.074695,0.593857 1.738757,0.593857 h -0.608781 l 0.189388,0.306439 c 0.104165,0.168542 0.844677,0.411225 1.645585,0.539295 l 1.456193,0.232855 1.071069,1.071067 c 0.589086,0.589087 1.685357,1.316858 2.436156,1.617268 l 1.365088,0.5462 0.525191,-0.435869 c 0.580746,-0.481977 0.70311,-1.608988 0.207923,-1.915031 C 56.938866,71.387154 56.466327,70.74 56.063279,70.056879 l -0.732822,-1.242037 1.752498,0.06203 1.752494,0.06203 -0.331974,0.400005 -0.331975,0.400005 0.909225,1.837211 c 0.500076,1.010466 1.029282,1.837211 1.176016,1.837211 0.146735,0 0.855155,-0.651248 1.574264,-1.447218 l 1.307476,-1.447219 -0.175451,-0.670919 -0.175447,-0.67092 0.902547,-0.226525 0.902547,-0.226525 0.689225,0.430429 0.689229,0.430429 -0.222158,-0.359459 -0.222158,-0.359458 8.916493,0.01252 8.916491,0.01252 -1.058334,0.478374 -1.058333,0.478375 -0.617605,-0.181331 -0.617601,-0.181331 -1.024357,0.729405 c -0.563393,0.401173 -1.367473,0.729406 -1.786837,0.729406 -0.419368,0 -1.069548,0.164335 -1.444847,0.36519 l -0.682364,0.365189 v 0.639028 0.639027 l 1.230908,1.267426 1.230909,1.267426 -0.221848,1.618544 c -0.122015,0.890199 -0.322915,1.681008 -0.44644,1.757352 -0.123529,0.07635 -0.894281,-0.03994 -1.712782,-0.258411 l -1.488186,-0.39722 -0.407533,0.40753 -0.407528,0.40753 1.301552,1.301555 c 0.715857,0.715855 1.452774,1.584111 1.637602,1.929458 l 0.336042,0.627904 -0.438154,0.16075 -0.438154,0.16075 0.440973,0.467431 0.440972,0.467431 v -0.515133 c 0,-0.283323 0.403299,-0.950073 0.896221,-1.481667 l 0.896222,-0.966534 0.603084,-0.0061 c 0.650586,-0.0066 2.190584,-1.446666 2.190584,-2.048469 v -0.367618 l 3.587073,-1.772438 3.587073,-1.772438 0.910844,0.50301 c 2.738786,1.512486 4.792895,1.900777 6.540457,1.236353 l 0.913049,-0.347139 -0.244224,-0.975777 c -0.134324,-0.536678 -0.534265,-1.452027 -0.88876,-2.034111 -0.3545,-0.582083 -0.645136,-1.332069 -0.645859,-1.666635 l -0.0013,-0.608302 -1.015584,-0.525178 c -0.863131,-0.446343 -1.453861,-1.190166 -1.453861,-1.830643 0,-0.08983 1.984375,-0.139287 4.409722,-0.109902 l 4.409715,0.05343 v 0.291371 c 0,0.160254 -0.3175,0.392141 -0.70555,0.515306 -0.835584,0.265204 -0.916042,0.725686 -0.176387,1.009518 l 0.529157,0.20306 v 0.874841 0.87484 l 0.79375,0.855247 c 0.83365,0.898236 4.39119,2.883654 7.67293,4.282176 l 1.94028,0.826853 3.88056,0.775192 c 2.1343,0.426355 4.59493,1.013131 5.46805,1.303945 0.87313,0.290814 2.30188,0.58238 3.175,0.647926 0.87313,0.06555 2.15878,0.359577 2.85702,0.653405 l 1.26952,0.534231 0.72243,-0.50601 0.72243,-0.50601 0.42449,-1.769468 0.42448,-1.769468 -0.42491,-1.771254 -0.42492,-1.771253 -0.7568,-0.390695 c -0.41624,-0.214882 -1.10799,-0.80688 -1.53724,-1.315552 l -0.78045,-0.924858 0.21182,-1.197002 0.21181,-1.197002 -0.90264,0.226548 c -0.95037,0.238528 -2.01704,-0.01234 -2.01704,-0.474389 v -0.273303 l 7.51862,-0.05737 7.51862,-0.05737 0.44743,2.926059 c 0.24609,1.609333 0.53163,3.441997 0.63453,4.072588 l 0.1871,1.146527 h 1.1684 1.16839 l 0.9972,-0.830037 c 1.29673,-1.079351 3.96183,-2.276037 6.75656,-3.033838 l 1.52602,-0.413785 1.02823,0.225837 1.02822,0.225836 1.61105,-1.087281 1.61104,-1.087282 0.82331,0.206638 0.82331,0.206637 0.23569,-0.381363 c 0.12964,-0.209749 0.54383,-0.381362 0.92044,-0.381362 h 0.68473 V 70.03436 69.477605 l -1.14653,0.07887 c -1.69949,0.11691 -2.38125,0.01542 -2.38125,-0.354487 v -0.330795 l 5.37986,0.02392 c 2.95893,0.01316 5.10205,0.09428 4.7625,0.180272 -0.33954,0.08599 -0.61736,0.227239 -0.61736,0.313881 0,0.08664 0.41103,0.808638 0.91339,1.604435 l 0.91339,1.446902 -1.3632,1.456504 c -1.44271,1.541463 -2.93302,3.556522 -2.93302,3.965772 0,0.13463 -0.75406,1.060965 -1.6757,2.058522 -0.92163,0.997557 -1.85495,2.124146 -2.07405,2.503531 l -0.39836,0.689791 -0.63541,-1.31934 -0.63542,-1.319341 -0.62859,-0.199509 -0.6286,-0.199508 -0.79775,0.426946 c -0.43877,0.23482 -1.62854,1.212665 -2.64394,2.172987 l -1.84618,1.746042 -0.42312,1.28614 c -0.23271,0.707376 -0.82494,1.894552 -1.31609,2.638169 l -0.89297,1.352031 v 1.911164 1.911164 H 148.402 c -0.34023,0 -0.70992,0.147781 -0.82155,0.328402 l -0.20297,0.328401 0.35124,0.217079 0.35125,0.217079 0.66416,-0.355451 0.66417,-0.355451 0.75423,0.802846 0.75424,0.802842 v 0.77102 0.77101 l 0.79375,0.0418 c 0.43656,0.023 0.99129,0.0162 1.23273,-0.015 0.24144,-0.0312 1.10686,0.58494 1.92315,1.36931 l 1.48417,1.42612 h 0.65201 c 0.3586,0 1.15202,-0.25857 1.76316,-0.5746 l 1.11115,-0.5746 1.07619,0.36925 c 0.59191,0.20309 1.58715,0.47319 2.21166,0.60021 l 1.13547,0.23094 3.09786,-0.75173 c 3.61856,-0.87809 4.95687,-1.35771 5.31109,-1.90337 0.14092,-0.21709 0.99655,-0.91065 1.90139,-1.54124 l 1.64517,-1.146525 h 0.73608 0.73608 v -1.245811 -1.245794 l 0.52917,-0.20306 c 0.29104,-0.111683 0.52916,-0.434554 0.52916,-0.717491 v -0.514431 l 1.94028,-1.940278 c 1.06715,-1.067153 1.94028,-2.163973 1.94028,-2.437378 v -0.4971 l 0.97555,-0.504477 0.97555,-0.504478 0.63732,-1.444505 0.63731,-1.444505 0.85658,-0.214988 0.85658,-0.214987 v -0.465724 c 0,-0.256149 0.24593,-0.711658 0.54652,-1.012243 l 0.54651,-0.546518 0.67217,0.419771 0.67215,0.419771 0.28008,-0.280073 0.28007,-0.280072 -0.65213,-0.476851 -0.65214,-0.476851 0.2642,-0.464445 c 0.14531,-0.255444 0.59058,-0.826769 0.98949,-1.269611 l 0.72529,-0.805167 -0.008,-2.193444 c -0.004,-1.206395 -0.0367,-2.550632 -0.0722,-2.987195 -0.0356,-0.436562 -0.0549,-1.112925 -0.043,-1.503028 l 0.0217,-0.709279 7.92553,0.02175 7.92554,0.02175 -0.20689,0.334754 c -0.1138,0.184114 -0.43984,0.334754 -0.72453,0.334754 -0.2847,0 -1.2048,0.687163 -2.04466,1.52703 -0.83987,0.839866 -2.03289,1.887236 -2.65117,2.327488 l -1.12414,0.800457 0.40776,0.491325 0.40776,0.491324 0.92978,-0.218296 c 0.51137,-0.120062 1.44571,-0.52835 2.0763,-0.907306 l 1.14653,-0.689011 v 0.342468 c 0,0.188357 -0.28408,0.693288 -0.63128,1.122068 l -0.63129,0.7796 -1.63763,0.184585 -1.63763,0.184584 -1.52345,-0.689268 c -0.83789,-0.379097 -2.13546,-0.95954 -2.88348,-1.289873 l -1.36003,-0.600604 -0.65746,0.208669 -0.65746,0.208669 -0.36179,1.302629 c -0.47396,1.706513 -0.45874,2.303222 0.0723,2.834263 l 0.43802,0.438024 -0.52327,0.323397 -0.52327,0.323398 0.43803,0.438024 c 0.24091,0.240913 0.43802,0.575002 0.43802,0.74242 v 0.304397 l -0.79375,-0.110369 -0.79375,-0.11037 -0.10696,1.098452 -0.10696,1.098452 -0.8992,0.409704 -0.8992,0.409704 0.21185,0.844079 0.21185,0.84408 -0.88475,0.646376 -0.88475,0.646376 -0.12766,1.516483 -0.12767,1.516482 -0.66733,0.776573 c -0.59355,0.690706 -1.04675,1.438136 -2.39602,3.951574 -0.20831,0.388055 -0.68424,1.062743 -1.05761,1.499302 l -0.67886,0.79375 h -0.63524 -0.63524 l 0.20242,1.01212 0.20243,1.01212 -0.80232,0.74747 -0.80232,0.74748 0.42781,0.799365 0.42781,0.79937 -0.10132,1.21162 -0.10131,1.21163 2.82222,0.47799 c 1.55222,0.2629 3.50968,0.51468 4.3499,0.55954 l 1.52768,0.0815 0.16883,-0.27318 c 0.32422,-0.52459 1.23237,-0.26588 2.43489,0.69364 l 1.21167,0.96681 1.01645,-0.10662 1.01645,-0.10662 0.20708,0.53962 0.20707,0.53962 -0.33737,0.20851 c -0.18556,0.11468 -0.33737,0.35789 -0.33737,0.54047 v 0.33195 h 0.86112 c 0.47362,0 0.95495,-0.15182 1.06963,-0.33737 l 0.20851,-0.33737 0.51787,0.19873 0.51787,0.19872 v 0.62667 0.62667 l 0.74922,0.19592 0.74922,0.19593 -0.22407,0.89278 -0.22408,0.89279 0.88596,0.58051 0.88597,0.5805 v 0.49967 c 0,0.27481 0.2238,0.58554 0.49733,0.69051 0.27353,0.10496 0.59386,0.57546 0.71185,1.04555 l 0.21451,0.8547 1.90941,2.03019 1.9094,2.03018 -0.32819,0.11759 c -0.52896,0.18953 -0.37695,1.02294 0.229,1.25546 0.30646,0.1176 0.93033,0.12017 1.38637,0.006 l 0.82917,-0.20811 0.11294,1.17856 0.11293,1.17857 1.05833,0.0275 c 0.58209,0.0151 1.48295,-0.0894 2.00192,-0.23234 1.14276,-0.31475 1.49615,-0.0489 0.90544,0.68103 l -0.43791,0.54115 0.44097,-0.26493 0.44097,-0.26493 v 1.76253 1.76253 l -1.21244,-0.19675 -1.21244,-0.19676 -1.24659,0.77044 -1.24659,0.77043 -0.36122,1.30058 c -0.19868,0.71532 -0.36211,1.65777 -0.36319,2.09433 l -0.002,0.79374 h -0.72308 c -0.39769,0 -1.19991,-0.24658 -1.78271,-0.54796 l -1.05964,-0.54796 -1.57132,0.23564 -1.57132,0.23563 -0.53955,1.13703 -0.53956,1.13702 0.36581,0.96216 c 0.2012,0.52918 0.36581,1.39836 0.36581,1.93152 v 0.96936 l 1.05834,1.01395 c 0.58208,0.55767 1.05833,1.21168 1.05833,1.45334 v 0.43939 l 0.7024,0.22294 c 0.38632,0.12261 0.85611,0.12793 1.04398,0.0118 l 0.34159,-0.21111 0.80809,0.45292 c 0.44446,0.24912 1.16677,0.7598 1.60513,1.13486 l 0.79703,0.68194 -0.19402,0.61129 -0.19401,0.6113 0.36712,0.22689 c 0.20193,0.1248 0.36713,0.52567 0.36713,0.89082 0,0.69886 0.60513,1.27636 0.96272,0.91876 0.11563,-0.11562 0.0317,-0.6021 -0.18655,-1.08106 l -0.39678,-0.87084 0.32407,-0.20028 0.32406,-0.20029 -0.2065,-0.53812 -0.2065,-0.53813 1.36844,0.92509 c 1.53966,1.04084 2.92418,2.58581 2.94325,3.28434 l 0.0127,0.46474 -0.79375,-0.20202 -0.79375,-0.20202 0.79375,0.40855 0.79375,0.40854 v 1.86555 1.86555 l -0.32265,0.19941 c -0.17745,0.10967 -0.37589,0.0793 -0.44097,-0.0674 -0.0651,-0.14673 -0.64255,-0.63484 -1.28326,-1.0847 l -1.16493,-0.81792 -1.65729,-0.30701 c -0.91151,-0.16886 -2.30768,-0.50179 -3.1026,-0.73985 l -1.4453,-0.43284 -0.58317,0.22378 -0.58317,0.22378 v 1.45704 1.45703 l 1.05834,0.98863 c 0.58208,0.54375 1.05833,1.14166 1.05833,1.32869 0,0.18703 0.32473,0.75288 0.72162,1.25745 l 0.72163,0.91739 2.0124,1.08097 2.01241,1.08097 0.98859,1.39445 0.9886,1.39445 0.39609,-0.0821 0.39609,-0.082 0.1448,1.54803 0.1448,1.54802 -0.47116,0.30406 -0.47116,0.30406 0.37384,0.26458 0.37385,0.26459 0.0896,1.60747 0.0896,1.60748 -1.34536,-0.13005 c -0.73996,-0.0715 -1.66287,-0.26609 -2.05093,-0.43236 -0.38805,-0.16627 -1.21033,-0.38835 -1.82728,-0.49351 l -1.12172,-0.1912 -0.14363,0.42719 -0.14364,0.4272 -1.22913,-0.44097 c -0.67603,-0.24254 -1.64506,-0.44098 -2.15341,-0.44098 h -0.92427 l -0.2694,-0.43589 c -0.14816,-0.23974 -0.22613,-0.93808 -0.17325,-1.55187 l 0.0961,-1.11598 -0.36819,-0.22756 c -0.20251,-0.12515 -0.91921,-1.054 -1.59266,-2.0641 -0.67346,-1.0101 -1.54752,-2.0345 -1.94235,-2.27646 l -0.71787,-0.43991 -0.89136,-1.75902 c -0.49025,-0.96746 -1.11998,-2.63672 -1.39939,-3.70946 -0.27941,-1.07274 -0.61114,-2.11729 -0.73717,-2.32121 l -0.22915,-0.37078 0.52452,-0.59513 0.52452,-0.59513 -0.27358,-1.94028 -0.27358,-1.94027 -0.94038,-1.76389 c -0.51721,-0.97014 -1.09149,-1.91536 -1.27617,-2.10048 l -0.33578,-0.33659 -1.22816,0.0827 -1.22815,0.0827 -1.32804,-0.6703 c -3.03791,-1.5333 -3.56172,-1.86255 -3.75199,-2.3584 l -0.19973,-0.5205 h -0.69143 c -0.38029,0 -0.91579,-0.22436 -1.19001,-0.49858 l -0.49858,-0.49858 -1.43195,0.0736 -1.43194,0.0736 -0.55963,0.46445 -0.55962,0.46445 -0.53366,-0.20479 c -0.29351,-0.11263 -0.53366,-0.41734 -0.53366,-0.67713 v -0.47234 l -1.42319,-0.62792 -1.4232,-0.62791 -0.54036,-0.82469 -0.54036,-0.8247 -1.03505,-0.36082 -1.03506,-0.36082 v 0.48374 c 0,0.26607 0.39245,0.95015 0.87211,1.52019 0.47966,0.57005 0.79096,1.11758 0.6918,1.21675 -0.0992,0.0992 -0.76943,-0.12076 -1.48947,-0.48874 l -1.30916,-0.66905 0.11037,-0.69702 0.11037,-0.69702 h -0.55135 c -0.30323,0 -0.55134,0.13436 -0.55134,0.29858 0,0.5707 1.112,2.52364 1.43695,2.52364 h 0.32694 v 1.09608 1.09608 l 0.52917,-0.20307 0.52916,-0.20305 v 0.69448 0.69448 h -0.35277 -0.35278 v 0.68178 0.68179 l 0.7024,0.22293 0.70239,0.22294 0.37139,-0.22954 0.37139,-0.22953 0.48754,0.40462 c 0.26815,0.22255 0.77713,0.35528 1.13108,0.29496 l 0.64353,-0.10967 -0.10237,0.61173 -0.10236,0.61172 0.54334,-0.20849 c 0.66171,-0.25393 0.66082,-0.33142 0.0278,2.40273 l -0.51558,2.22676 0.12701,1.41111 c 0.0699,0.77611 0.14312,1.90156 0.1628,2.50101 l 0.0358,1.0899 0.84118,0.38327 0.84118,0.38326 0.41455,2.40739 c 0.22801,1.32406 0.62662,3.04239 0.88581,3.8185 l 0.47125,1.41111 -0.0639,2.02346 -0.0639,2.02347 -0.34015,0.32354 c -0.18708,0.17795 -0.65068,0.37948 -1.03023,0.44784 l -0.69009,0.12428 -0.20659,0.87512 -0.20658,0.87511 -1.90094,0.42213 -1.90094,0.42213 -1.02753,-0.53136 c -1.35258,-0.69944 -1.64052,-0.3424 -0.60919,0.75539 l 0.82593,0.87916 -0.23336,0.23337 -0.23337,0.23336 -2.12503,-1.11392 -2.12504,-1.11391 h -1.58235 -1.58234 v 0.35278 0.35277 h -1.96347 -1.96347 l -0.68236,0.36519 -0.68236,0.36519 v -0.71797 -0.71796 h -0.51266 -0.51266 l -0.71938,1.62627 -0.71938,1.62628 -0.5607,-0.21517 c -0.30839,-0.11834 -1.18272,-0.21516 -1.94297,-0.21516 h -1.38225 v -0.49465 -0.49466 l -1.13047,-0.39409 -1.13047,-0.39408 -0.82409,0.88874 -0.82408,0.88874 h -1.35909 -1.35909 l -0.20307,-0.52917 c -0.11168,-0.29104 -0.44209,-0.52916 -0.73424,-0.52916 h -0.53117 l -0.58745,1.14653 c -0.70624,1.37837 -1.09208,1.6632 -2.26259,1.67029 l -0.89165,0.005 -0.833,-0.58346 z m -3.39187,-1.90368 c -0.1139,-0.1843 -0.43585,-0.33508 -0.71544,-0.33508 h -0.50835 v 0.71796 0.71797 l 0.71544,-0.38289 0.71544,-0.38289 z m 30.86791,-3.2455 c -0.006,-0.24253 -0.41685,-0.73666 -0.91278,-1.09806 l -0.90169,-0.65708 -0.40719,0.40719 -0.40719,0.40719 0.50937,0.31481 c 0.28016,0.17315 0.63714,0.23585 0.79329,0.13934 0.15616,-0.0965 0.37916,0.0727 0.49556,0.37606 0.25243,0.65782 0.84637,0.73687 0.83063,0.11055 z m 1.61758,-0.58662 c -0.27347,-0.44249 -1.25372,-0.52168 -1.25372,-0.1013 0,0.15523 0.1905,0.47273 0.42333,0.70556 l 0.42334,0.42333 0.32204,-0.32204 0.32204,-0.32204 z m -122.680783,-1.49533 1.279017,-0.65208 2.659436,-0.005 2.659437,-0.005 0.492379,-0.31177 0.492375,-0.31177 -0.219311,-0.57153 -0.219315,-0.57152 -3.523407,0.0716 -3.523407,0.0716 -0.17817,0.4643 -0.178167,0.4643 -1.157601,0.004 c -1.968924,0.007 -3.630419,0.39174 -4.491281,1.04109 l -0.824735,0.6221 0.248253,0.40168 0.248254,0.40169 2.478613,-0.23037 2.478609,-0.23036 1.279021,-0.65208 z m -11.940308,0.0242 1.781253,-0.38202 v -0.5237 -0.52371 l 0.707294,0.22449 0.707292,0.22448 0.242634,-0.63229 c 0.133448,-0.34776 0.84704,-1.20725 1.585761,-1.90998 l 1.34313,-1.27769 v -1.26373 -1.26375 l -0.92952,-0.73116 -0.92952,-0.73116 h -0.821309 c -0.451718,0 -1.581248,0.29833 -2.510063,0.66296 -0.928815,0.36463 -2.59604,0.86491 -3.704945,1.11172 l -2.01619,0.44877 -0.510279,-0.4235 -0.510279,-0.42349 -0.95893,1.25722 -0.95893,1.25722 -0.406988,-0.33777 -0.406988,-0.33777 -0.340946,0.24441 c -0.18752,0.13442 -0.5384,0.79426 -0.779733,1.46632 l -0.438786,1.22192 0.542443,0.30357 0.542444,0.30357 -0.22,0.69316 -0.22,0.69316 0.821898,-0.19877 c 0.452045,-0.10932 2.009087,-0.0465 3.460094,0.13969 l 2.638195,0.33845 0.125231,0.37569 c 0.15233,0.45699 0.0034,0.45743 2.165737,-0.006 z m 123.842371,-2.24301 c 0,-0.61481 -0.57844,-1.02296 -1.04293,-0.73589 l -0.33737,0.2085 0.19873,0.51787 c 0.1093,0.28483 0.41986,0.51787 0.69015,0.51787 h 0.49142 z m -4.23333,-0.44081 V 161.884 l -0.88195,0.22135 -0.88194,0.22136 v -0.45103 c 0,-0.24807 -0.32366,-0.65316 -0.71925,-0.9002 l -0.71924,-0.44918 0.22329,-0.36129 0.22329,-0.36129 -0.23014,-0.91695 -0.23014,-0.91695 -0.54699,0.54699 -0.547,0.54699 0.34973,0.62493 0.34972,0.62492 -0.17515,1.30582 -0.17514,1.30583 1.98045,0.0178 1.98046,0.0178 v -0.53844 z m 10.53813,0.279 0.48397,-0.30657 -0.14163,-0.4249 -0.14163,-0.42489 -0.8715,0.72513 -0.87151,0.72514 0.52917,0.006 c 0.29104,0.004 0.74695,-0.13163 1.01313,-0.30024 z M 62.077159,161.72947 c 0.694835,-0.62881 0.867259,-1.53282 0.292361,-1.53282 -0.612637,0 -0.382693,-0.92242 0.404097,-1.62102 l 0.756877,-0.67204 -0.178791,0.97014 -0.178788,0.97014 h 0.991884 0.991885 l 0.341922,-0.61098 0.341923,-0.61098 -0.585424,-0.99104 -0.585421,-0.99104 -0.764095,-0.19178 -0.764092,-0.19177 0.925216,-1.99857 0.925216,-1.99856 -0.0514,-1.54738 -0.0514,-1.54737 0.680476,-1.26962 c 0.374262,-0.6983 0.680477,-1.09239 0.680477,-0.87576 v 0.39387 l 1.562086,0.39334 1.562086,0.39334 0.564381,-0.21658 c 0.310409,-0.11911 0.724305,-0.5154 0.919769,-0.88062 l 0.355392,-0.66405 -0.393266,-0.73483 -0.393266,-0.73482 -0.677478,0.61311 c -0.372615,0.33721 -0.677482,0.82663 -0.677482,1.0876 0,0.26097 -0.15875,0.47449 -0.352778,0.47449 -0.194027,0 -0.352777,-0.16476 -0.352777,-0.36613 v -0.36613 l -0.970139,0.10155 -0.970139,0.10154 v -0.51511 -0.51511 l 1.234722,-0.77975 c 0.679097,-0.42886 1.56893,-1.10987 1.977404,-1.51336 0.408475,-0.40348 0.908826,-0.73361 1.111889,-0.73361 h 0.36921 l 0.248624,-2.14217 0.248623,-2.14216 0.491571,-0.18864 0.491568,-0.18863 v -0.69159 -0.69158 l 0.70811,0.22475 0.708109,0.22474 1.014798,-1.0148 1.014797,-1.01479 1.486439,-0.44535 1.486437,-0.44535 0.23024,0.24914 0.230237,0.24913 -0.440958,0.15749 c -0.835847,0.29852 -4.67432,3.73844 -4.67432,4.18898 v 0.45147 l 1.189874,-0.19309 1.189873,-0.19309 0.242059,0.39166 c 0.133131,0.21541 0.512,0.39166 0.841932,0.39166 h 0.599878 l 0.440626,-0.70556 c 0.242344,-0.38805 0.677404,-0.70555 0.966802,-0.70555 0.782013,0 0.641597,-0.41064 -0.433582,-1.26795 l -0.95976,-0.76529 0.473788,-0.57088 c 0.538688,-0.64908 1.48276,-0.74552 2.021741,-0.20654 l 0.364345,0.36434 0.588155,-0.2257 0.588158,-0.22569 v -0.52967 -0.52967 l -0.881944,0.22135 -0.881945,0.22136 v -0.3595 -0.3595 l 0.79375,-0.0525 c 0.436563,-0.0289 1.588484,-0.075 2.559826,-0.10242 0.971339,-0.0274 2.003118,-0.19636 2.292841,-0.37542 0.289726,-0.17905 0.944089,-0.28178 1.45415,-0.22828 l 0.927375,0.0973 0.699474,-0.88924 c 0.384711,-0.48908 1.078738,-1.06778 1.542281,-1.286 l 0.842803,-0.39677 0.821274,-1.27144 0.821274,-1.27143 -0.821274,-0.61978 c -0.970185,-0.73215 -3.558409,-1.44325 -4.265482,-1.17192 l -0.496422,0.19049 -2.615798,-0.87398 c -1.438687,-0.48068 -3.132127,-1.07821 -3.7632,-1.32782 l -1.14741,-0.45385 -0.181571,-0.57208 c -0.09986,-0.31464 -0.574887,-0.94158 -1.055607,-1.39319 l -0.874031,-0.82111 -1.148377,0.35221 -1.148376,0.35221 -1.322917,-0.15466 -1.322916,-0.15466 v -0.49058 c 0,-0.26981 -0.15875,-0.49056 -0.352778,-0.49056 h -0.352778 v 0.71311 0.71312 l -0.881944,0.40184 c -0.48507,0.22102 -0.881945,0.51845 -0.881945,0.66097 0,0.14252 -0.394134,0.63297 -0.875848,1.0899 -0.481718,0.45693 -0.878593,1.00978 -0.881945,1.22856 -0.0035,0.21877 -0.244221,0.5954 -0.535262,0.83694 -0.291042,0.24154 -0.529167,0.71873 -0.529167,1.0604 v 0.62124 l -0.881945,0.16859 -0.881944,0.1686 v -0.5821 -0.58209 l -2.495391,0.22873 -2.495392,0.22872 -0.944192,0.74603 c -0.519306,0.41032 -1.593821,1.04758 -2.387811,1.41615 l -1.443616,0.67013 -0.785266,1.1028 -0.785266,1.1028 h -1.037301 -1.0373 l 0.416182,-0.66641 0.416179,-0.66641 -0.983502,-0.91148 -0.983506,-0.91148 -0.709034,0.37946 -0.709033,0.37946 -0.899168,-0.40968 -0.899167,-0.40969 -0.9822,0.72617 c -0.540212,0.39939 -1.049489,0.72617 -1.131732,0.72617 -0.08224,0 -0.232555,-0.3175 -0.334035,-0.70555 l -0.184506,-0.70556 h -0.5622 -0.562194 v 0.80945 0.80946 l -1.675694,1.2811 c -2.209571,1.68926 -5.766686,5.14552 -6.533227,6.348 -0.335788,0.52675 -0.610523,1.19821 -0.610523,1.49213 v 0.53441 l 1.322916,0.66242 c 0.727605,0.36433 1.93892,0.75781 2.691815,0.8744 l 1.368894,0.21197 0.994255,-0.51415 0.994251,-0.51414 1.605305,0.85354 c 0.882914,0.46946 2.041998,0.94529 2.57574,1.05741 l 0.970435,0.20386 0.526217,-0.33746 0.526218,-0.33746 -0.423559,-0.42356 -0.423563,-0.42357 -1.600853,0.0242 -1.600852,0.0242 -0.217315,-0.35163 -0.217318,-0.35162 0.35004,-0.35004 0.350037,-0.35004 1.607492,0.24106 1.607495,0.24106 0.936347,1.35115 0.936346,1.35115 0.518389,-0.19892 0.51839,-0.19893 1.046349,1.00247 1.046353,1.00247 -0.170208,0.44355 c -0.09361,0.24396 0.02406,0.81799 0.261475,1.27563 l 0.431684,0.83207 0.435,-0.145 c 0.673854,-0.22462 0.514198,0.26574 -0.301611,0.92634 l -0.736611,0.59647 0.696179,0.85975 0.696178,0.85974 0.565426,-0.46926 0.565425,-0.46926 0.176547,0.4807 c 0.0971,0.26439 0.329015,1.57969 0.515366,2.9229 l 0.338819,2.44219 2.311033,2.24385 c 1.271065,1.23412 2.31103,2.31794 2.31103,2.4085 0,0.0906 -0.308131,0.16465 -0.684735,0.16465 -0.775282,0 -1.228485,0.53131 -0.902765,1.05834 0.318801,0.51583 0.914971,0.43224 1.647916,-0.23107 z m 87.163891,0.0138 0.61737,-0.21776 v -0.48802 -0.48802 h -0.635 c -0.34925,0 -0.81483,-0.17983 -1.03462,-0.39962 l -0.39963,-0.39963 -0.55287,0.21216 -0.55288,0.21217 v 0.54024 0.54023 h 0.69448 0.69448 l -0.22153,0.57731 -0.22153,0.5773 0.49719,-0.2243 c 0.27345,-0.12336 0.775,-0.32229 1.11454,-0.44206 z m 9.3559,-0.77469 0.13958,-0.41874 -0.57371,-0.22016 c -0.73592,-0.2824 -0.97216,-0.0362 -0.68452,0.71337 l 0.22815,0.59457 0.37547,-0.12515 c 0.2065,-0.0688 0.43827,-0.31359 0.51503,-0.54389 z M 82.391575,158.4328 h 1.102974 l 0.235694,-0.38136 0.235695,-0.38136 0.877203,0.22016 0.877203,0.22016 0.493543,-0.4096 0.493543,-0.40961 0.690521,0.18058 0.69052,0.18057 0.121634,-0.3649 0.121634,-0.3649 1.029325,0.95394 1.029324,0.95395 0.200392,-0.57128 0.200395,-0.57127 0.841813,0.7301 0.841812,0.7301 0.662902,-0.2104 0.662901,-0.2104 0.495307,0.41108 0.495307,0.41107 0.722485,-0.22931 c 0.397369,-0.12612 0.722486,-0.37523 0.722486,-0.55358 0,-0.17835 0.515937,-0.54107 1.146527,-0.80605 1.348822,-0.56678 3.792355,-2.65451 3.792355,-3.24014 0,-0.2242 0.39688,-0.58846 0.88195,-0.80947 0.98754,-0.44996 1.147,-1.04296 0.3615,-1.34438 l -0.52044,-0.19971 0.52044,-1.00642 c 0.28624,-0.55353 0.52044,-1.36126 0.52044,-1.79495 v -0.78854 l 0.75841,-0.80728 0.7584,-0.80727 -0.58201,-0.22334 c -0.72095,-0.27666 -0.76512,-0.85341 -0.0654,-0.85341 0.28415,0 1.23064,-0.39862 2.1033,-0.88582 0.87266,-0.4872 2.58486,-1.1366 3.80488,-1.4431 1.22003,-0.3065 2.57541,-0.78466 3.01197,-1.06259 l 0.79375,-0.50532 -0.005,-0.962 c -0.007,-1.26862 -0.32904,-1.72031 -1.5594,-2.1881 l -1.02127,-0.38828 -2.49933,0.86017 c -1.37463,0.4731 -2.93914,0.95924 -3.4767,1.08031 l -0.97738,0.22013 -0.67488,-0.36117 -0.67487,-0.36118 -0.11164,-0.96726 -0.11164,-0.96726 -0.66437,-0.12613 -0.66437,-0.12613 0.23012,0.91686 0.23011,0.91687 h -0.34743 c -0.5003,0 -1.07747,-1.21592 -1.07747,-2.26987 0,-0.96989 -0.325407,-1.14417 -0.957037,-0.51254 l -0.392596,0.3926 -0.383515,-0.23703 -0.383515,-0.23702 v -1.07576 -1.07576 l -0.860323,0.21593 -0.860326,0.21592 -0.219301,-0.35483 -0.219301,-0.35484 -1.478015,0.22407 -1.478012,0.22407 -0.617361,0.53692 c -0.814504,0.70839 -0.781446,1.13314 0.08819,1.13314 h 0.705556 l -0.01171,0.61736 c -0.0065,0.33955 -0.449343,1.25236 -0.984214,2.02847 l -0.972492,1.41111 -1.397039,0.41772 c -4.384135,1.31087 -5.86927,1.63458 -8.088574,1.76301 l -2.458201,0.14226 -0.568188,0.5142 -0.568184,0.5142 h -1.075555 -1.075552 l -0.426346,0.51372 -0.426343,0.51371 0.20912,0.33836 0.209116,0.33836 -0.884301,1.05093 c -0.486368,0.57802 -0.884304,1.18008 -0.884304,1.33792 0,0.15784 -0.574429,0.87524 -1.276509,1.59424 l -1.276509,1.30726 -0.295628,1.52984 c -0.162595,0.8414 -0.302542,2.05219 -0.310991,2.69064 l -0.01538,1.16081 -0.753071,1.01859 -0.753072,1.01858 0.212835,0.55463 0.212831,0.55463 h 1.554219 c 0.854819,0 2.184664,-0.22243 2.955208,-0.49429 l 1.400994,-0.4943 1.906556,0.13121 1.906556,0.13121 0.343185,0.52713 0.343183,0.52713 0.737887,-0.69321 0.737884,-0.69321 h 1.10297 z m -30.675944,-1.12893 c 0.57965,-0.57965 0.531439,-1.90595 -0.104567,-2.87661 l -0.527903,-0.80568 -0.224861,-2.26872 -0.224864,-2.26871 -0.524743,-0.60422 -0.524743,-0.60423 0.203765,-0.531 0.203768,-0.53101 -0.352824,-0.21806 -0.352823,-0.21806 -0.496786,0.4123 -0.496781,0.41229 -0.739976,-0.23485 c -0.406986,-0.12918 -2.20054,-0.36675 -3.98568,-0.52794 -3.606645,-0.32567 -6.748601,-1.12067 -7.648811,-1.93535 l -0.591338,-0.53515 h -0.959847 -0.959846 l -1.305431,1.27215 -1.305431,1.27215 -2.229407,-0.22615 c -1.226173,-0.12439 -2.522,-0.40889 -2.879615,-0.63222 l -0.650209,-0.40607 -2.58844,0.84634 c -1.423642,0.46548 -2.808586,1.03832 -3.077653,1.27298 l -0.489213,0.42667 0.216628,0.56452 c 0.119145,0.31049 0.498041,0.65502 0.841991,0.76564 0.343949,0.11061 1.260362,0.49843 2.036473,0.86182 1.535647,0.71902 7.113671,1.85802 7.606783,1.55326 l 0.304983,-0.18849 0.718422,0.71842 c 0.849378,0.84938 1.423979,0.92575 1.423979,0.18926 v -0.52917 h 0.942361 0.942361 l 0.594121,-0.53767 0.594121,-0.53767 0.580185,0.22264 0.580184,0.22263 v 0.5025 c 0,0.27637 0.227234,0.58969 0.504964,0.69627 l 0.504963,0.19377 1.077255,-0.79645 1.077256,-0.79645 0.845386,0.45243 0.845383,0.45244 1.114513,-0.24479 1.11451,-0.24478 0.867607,0.56847 c 0.477185,0.31267 0.867608,0.72357 0.867608,0.91313 0,0.43852 1.304929,1.75575 1.739353,1.75575 0.180534,0 0.378972,0.3529 0.440972,0.78422 l 0.112731,0.78421 1.411111,0.79749 c 1.597176,0.90263 2.316416,0.99739 2.928055,0.38575 z m 97.084449,-0.29329 c 0,-0.20012 -0.22703,-0.45097 -0.50451,-0.55745 -0.27749,-0.10648 -0.67026,-0.66903 -0.87282,-1.25011 l -0.3683,-1.05651 -0.36191,0.22366 c -0.62482,0.38617 -0.39747,1.17884 0.60463,2.10804 1.02986,0.95494 1.50291,1.1225 1.50291,0.53237 z m -81.320305,-4.74913 0.250405,-1.76159 -0.696348,0.63018 -0.696348,0.63019 -0.206855,1.27471 c -0.113771,0.70108 -0.114653,1.42388 -0.0021,1.60622 l 0.204894,0.33153 0.447904,-0.47483 0.447908,-0.47482 0.250401,-1.76159 z m 81.042345,1.88991 0.13362,-0.40084 0.78849,0.48904 0.78849,0.48903 0.33661,-0.52916 c 0.18514,-0.29105 0.33905,-0.84817 0.34202,-1.23806 l 0.005,-0.70889 -0.70556,-0.44063 c -0.75432,-0.47108 -0.89945,-0.22914 -0.36728,0.6123 l 0.32747,0.51778 -1.10013,0.36416 c -0.60506,0.20029 -1.16496,0.56261 -1.24421,0.80514 l -0.14409,0.44097 h 0.35278 c 0.19402,0 0.4129,-0.18037 0.48639,-0.40084 z m -0.42759,-3.86749 c 0,-0.15314 -0.40912,-0.72385 -0.90916,-1.26825 l -0.90916,-0.9898 0.2036,1.19062 c 0.11199,0.65484 0.20361,1.51288 0.20361,1.90676 v 0.71614 l 0.70555,-0.63852 c 0.38806,-0.35119 0.70556,-0.76382 0.70556,-0.91695 z m -0.86046,-4.11014 c -0.12726,-0.53357 -0.31709,-1.25796 -0.42185,-1.60974 l -0.19047,-0.63961 0.73639,0.45988 c 0.40501,0.25294 0.73639,0.65982 0.73639,0.90419 v 0.44431 h 1.22231 1.22231 l 0.38967,-0.72811 0.38967,-0.7281 -0.41673,-0.50213 -0.41672,-0.50212 0.23862,-0.62186 c 0.33753,-0.87958 0.26173,-0.98733 -0.61669,-0.87652 l -0.77772,0.0981 0.70555,-0.42074 c 0.92348,-0.55068 1.21083,-1.01476 0.98796,-1.59557 -0.27297,-0.71134 -0.80778,-0.57292 -1.58015,0.40898 l -0.69374,0.88195 h -0.65913 c -0.36252,0 -0.75794,-0.15987 -0.8787,-0.35527 l -0.21956,-0.35527 0.55152,-0.21164 c 0.64089,-0.24593 0.73744,-1.07372 0.14816,-1.27015 l -0.40337,-0.13445 0.40337,-0.7537 c 0.22185,-0.41453 0.40337,-1.161 0.40337,-1.65883 v -0.90514 h -0.50463 -0.50464 l -0.13885,0.79375 -0.13886,0.79375 -0.23846,-0.61736 c -0.69778,-1.80655 -0.68011,-2.20432 0.098,-2.20591 l 0.51286,-0.001 -0.0344,-2.00846 -0.0344,-2.00847 -0.79697,-1.11924 c -0.43833,-0.61558 -1.51512,-1.57467 -2.39286,-2.13132 l -1.5959,-1.01209 -1.26063,-0.22537 c -0.69335,-0.12396 -1.49875,-0.42102 -1.7898,-0.66014 -0.6703,-0.55072 -3.80681,-1.32698 -4.25143,-1.05219 -0.18407,0.11377 -0.33468,0.39878 -0.33468,0.63337 v 0.42652 l -6.96736,-0.006 -6.96736,-0.006 -1.35764,0.28709 -1.35765,0.28708 0.23194,-0.37528 c 0.12754,-0.20639 0.52935,-0.37526 0.89288,-0.37526 h 0.66096 l 0.24154,-0.76102 0.24154,-0.76102 -0.83513,-0.64225 c -0.45932,-0.35324 -1.0375,-0.64577 -1.28483,-0.65009 l -0.44971,-0.008 -0.30661,0.79375 c -0.36951,0.95655 -1.50832,1.9999 -3.2901,3.01431 l -1.32113,0.75214 -1.85387,-0.17402 -1.85388,-0.17403 -0.99215,-0.7218 -0.99215,-0.7218 -0.97486,0.33984 -0.97486,0.33983 -0.5687,-0.31826 -0.56869,-0.31825 -1.69764,0.93292 c -0.93369,0.51312 -1.97544,1.17509 -2.31498,1.47105 l -0.617367,0.53812 0.005,0.73907 c 0.003,0.40649 0.15458,0.97501 0.33691,1.26338 l 0.331507,0.5243 2.22073,0.4751 c 1.2214,0.2613 2.73942,0.51759 3.37336,0.56952 0.63394,0.0519 1.25571,0.19752 1.38171,0.32351 0.126,0.126 0.49873,0.2291 0.82828,0.2291 0.32955,0 1.01855,0.32987 1.53111,0.73305 l 0.93193,0.73306 0.96773,-0.19945 c 0.53225,-0.1097 1.60273,-0.22009 2.37884,-0.24531 0.77611,-0.0252 2.1441,-0.27111 3.03998,-0.54641 l 1.62887,-0.50054 5.77946,-0.003 c 5.74189,-0.003 8.24358,0.12998 11.20615,0.59638 l 1.54611,0.24341 0.17594,0.67278 0.17594,0.67278 0.571,-0.23974 c 0.31404,-0.13185 0.99483,-0.40896 1.51285,-0.61578 l 0.94186,-0.37605 0.5618,0.46625 0.56179,0.46625 -0.41914,0.50504 -0.41914,0.50504 -0.79074,-0.19846 -0.79073,-0.19846 -0.14062,0.42187 -0.14063,0.42188 -1.13711,-0.47101 -1.13712,-0.47101 -0.48406,0.662 c -0.63314,0.86587 -0.3872,1.19894 0.88531,1.19894 h 1.03751 v 0.47037 c 0,0.2587 -0.10446,0.57482 -0.23212,0.7025 l -0.23213,0.23212 -0.45798,-0.38009 -0.45797,-0.38009 -0.36824,0.22758 c -0.20252,0.12517 -0.36823,0.45075 -0.36823,0.72352 v 0.49593 l 0.75756,0.40543 c 0.41666,0.22299 1.29507,0.94295 1.95204,1.59991 l 1.19448,1.19449 h 0.69379 c 0.38159,0 0.6938,0.13718 0.6938,0.30485 0,0.16766 0.72456,0.58156 1.61014,0.91976 0.88557,0.33821 1.99682,0.97329 2.46944,1.4113 l 0.85931,0.79638 v 0.87089 c 0,0.99494 0.25278,1.34126 0.97898,1.34126 h 0.50862 z m -0.19788,-3.26319 c 0,-0.19403 -0.22114,-0.35278 -0.49142,-0.35278 -0.27028,0 -0.57591,-0.22016 -0.67916,-0.48924 l -0.18774,-0.48924 0.76736,0.18742 c 1.42479,0.34797 2.28448,1.49661 1.12013,1.49661 -0.29104,0 -0.52917,-0.15875 -0.52917,-0.35277 z m -3.175,-1.74307 c 0,-0.37661 0.15875,-0.78285 0.35278,-0.90277 0.19403,-0.11991 0.35278,-0.46143 0.35278,-0.75892 0,-0.2975 0.3175,-0.94454 0.70555,-1.43787 l 0.70556,-0.89697 v 0.53265 c 0,0.29295 0.0992,1.02873 0.22049,1.63507 l 0.22048,1.10243 h -0.70851 -0.7085 l -0.18451,0.70556 c -0.10148,0.38805 -0.35812,0.70555 -0.57031,0.70555 h -0.38581 z m -3.82659,-2.18218 -0.46854,-0.75025 0.56007,-0.56007 0.56006,-0.56007 v 0.61584 0.61583 l 0.52917,0.20306 c 0.29104,0.11168 0.52917,0.4242 0.52917,0.69448 v 0.49143 h -0.6207 -0.6207 z m -121.173638,5.07123 c 0.614808,-0.33925 1.569742,-0.87944 2.122077,-1.20043 l 1.004246,-0.58361 3.470122,-0.19312 3.470122,-0.19312 0.800758,-0.52468 0.800758,-0.52467 0.177546,-0.92877 0.177546,-0.92878 -0.868401,-1.03203 -0.868402,-1.03204 -1.821546,-0.52106 -1.821546,-0.52105 -2.645833,-0.0473 c -2.867784,-0.0513 -5.183939,0.27498 -5.492145,0.77368 -0.106667,0.17258 -0.541758,0.32076 -0.96687,0.32928 -1.131721,0.0227 -3.361119,0.88133 -4.156008,1.60069 l -0.690539,0.62493 0.361113,0.36111 c 0.198613,0.19862 0.361114,0.87466 0.361114,1.50232 0,1.34042 0.574439,3.00161 1.168598,3.37941 0.230397,0.1465 1.292028,0.26855 2.359181,0.27121 l 1.940278,0.005 1.117831,-0.61681 z m 64.578963,-2.90987 c 0.493331,-0.38806 1.193059,-0.70556 1.554949,-0.70556 0.84714,0 0.853518,-0.59595 0.0092,-0.86391 l -0.648737,-0.2059 -1.379735,0.57455 c -1.425681,0.59369 -1.990069,1.13686 -1.688416,1.62495 0.30184,0.48838 1.223462,0.3068 2.152696,-0.42413 z m 6.215909,-1.03965 0.359707,-0.35971 -0.232541,-0.23253 -0.232541,-0.23254 -0.503385,0.41777 -0.503386,0.41777 -0.126203,-0.3786 -0.126199,-0.37861 -1.176824,0.41025 -1.176828,0.41024 0.474973,0.31921 0.474969,0.3192 1.204274,-0.17637 c 0.662351,-0.097 1.366143,-0.33824 1.563984,-0.53608 z m -7.278896,-2.61979 c -0.07191,-0.21863 -0.475491,-0.44824 -0.896856,-0.51024 l -0.766117,-0.11273 v 0.52431 c 0,0.59138 0.65386,0.91594 1.337825,0.66406 l 0.455884,-0.16789 z m 38.203842,-0.80379 1.14945,-0.22988 0.15581,-0.59584 0.15582,-0.59582 1.32681,-0.5854 c 0.72976,-0.32196 1.65966,-0.58539 2.06646,-0.58539 h 0.73963 l 0.23237,-0.73214 c 0.34005,-1.07139 -0.0664,-1.25201 -1.34528,-0.59784 -0.62293,0.31864 -1.68822,0.69019 -2.36731,0.82567 l -1.2347,0.24633 -0.461,0.65816 -0.46099,0.65816 h -1.21472 -1.21471 v 0.88194 0.88194 h 0.66145 c 0.36381,0 1.17872,-0.10345 1.81091,-0.22989 z M 17.677124,134.79665 h 0.838599 l 0.667354,-0.73742 0.667354,-0.73742 -0.700872,-0.52118 -0.700873,-0.52118 -1.907388,0.23256 c -1.049064,0.12791 -2.120627,0.31439 -2.38125,0.4144 l -0.473862,0.18184 v 0.691 c 0,0.38005 0.159772,0.98954 0.355049,1.35442 l 0.355048,0.66341 1.221121,-0.51022 c 0.671616,-0.28061 1.598491,-0.51021 2.05972,-0.51021 z m 17.083257,-0.78851 c 0.729957,-0.82173 2.319382,-2.44908 3.532056,-3.61632 l 2.204861,-2.12226 v -1.1079 -1.1079 l 2.486512,-0.56153 2.486508,-0.56153 1.497581,0.40055 1.49758,0.40054 1.042995,-0.34958 1.042991,-0.34958 1.159429,0.48241 1.159425,0.48241 1.328388,-0.3577 c 0.730614,-0.19673 1.955123,-0.83464 2.72113,-1.41757 l 1.392739,-1.05988 2.322682,-0.70671 2.322685,-0.70672 2.23235,-1.5018 c 1.22779,-0.826 2.643208,-1.77879 3.14537,-2.11732 0.502165,-0.33852 1.275193,-0.61634 1.717844,-0.61736 l 0.804824,-0.002 0.208827,-0.5442 c 0.114854,-0.29931 0.863935,-0.88071 1.664621,-1.29203 1.539543,-0.79085 5.732469,-1.81542 6.213291,-1.51826 0.446307,0.27583 2.039719,-0.67951 2.848699,-1.70796 l 0.735294,-0.93478 h 1.316969 1.316969 l 1.183785,-0.87336 c 0.651083,-0.48036 1.707091,-1.04608 2.346692,-1.25717 l 1.162903,-0.38379 0.74923,-1.21228 c 0.72427,-1.17198 1.397243,-1.58596 1.397243,-0.8596 0,0.19403 0.15875,0.35278 0.352778,0.35278 h 0.352778 v -0.70556 -0.70555 h 0.694693 c 0.38208,0 1.344916,-0.33892 2.139633,-0.75315 l 1.444939,-0.75314 -0.352707,-0.35271 -0.352711,-0.35271 -1.441284,0.57669 c -1.620277,0.6483 -2.132563,0.71462 -2.132563,0.27607 0,-0.28363 9.10195,-4.991055 9.65038,-4.991055 0.14124,0 1.24239,0.46176 2.44697,1.026135 l 2.19015,1.02613 0.85833,0.91742 0.85832,0.91743 0.59414,-0.18857 0.59414,-0.18858 1.09268,1.02071 1.09267,1.02071 0.9352,-0.17877 0.93521,-0.17878 0.69964,-1.18581 0.69964,-1.1858 h 0.49433 c 0.27187,0 0.49432,-0.16178 0.49432,-0.3595 v -0.3595 l -0.8666,0.2175 -0.86659,0.2175 -0.22345,-0.89033 -0.22346,-0.89032 0.47529,-0.996145 0.4753,-0.99615 0.98886,-0.11368 0.98887,-0.11369 0.54299,0.45064 0.54298,0.45064 1.46416,-0.1028 1.46415,-0.10279 0.55694,-0.49874 c 0.30632,-0.27431 0.80342,-0.49875 1.10466,-0.49875 h 0.54771 l 0.91727,-1.2026 0.91728,-1.20261 1.4158,-0.239197 c 0.77869,-0.13156 1.51156,-0.394139 1.6286,-0.58351 l 0.2128,-0.344312 -0.61025,-0.67432 c -0.33564,-0.370875 -0.9465,-0.780521 -1.35748,-0.910324 -0.41097,-0.129802 -0.95466,-0.53073 -1.2082,-0.89095 l -0.46098,-0.654947 h -1.05238 -1.05238 l -1.40916,0.718898 -1.40915,0.718898 -0.34068,-0.210551 c -0.18737,-0.115803 -0.34068,-0.433722 -0.34068,-0.706486 0,-0.57913 -1.27638,-1.351223 -1.74993,-1.05855 l -0.32425,0.200393 -1.40469,-1.418801 c -0.77258,-0.78034 -1.5362,-1.419405 -1.69694,-1.420143 -0.16074,-7.41e-4 -1.721,-0.239454 -3.46725,-0.530478 -1.74625,-0.291024 -5.09476,-0.68175 -7.44116,-0.868279 -2.34638,-0.18653 -4.709366,-0.507657 -5.251081,-0.713617 l -0.984942,-0.374234 -0.807572,0.529141 c -0.444161,0.291028 -0.898574,0.811183 -1.009805,1.155901 -0.111231,0.344717 -0.691762,0.904572 -1.290069,1.24412 l -1.087829,0.617362 h -1.54819 -1.54819 l -1.10592,-2.293056 c -0.608259,-1.261181 -1.2351,-2.293056 -1.392982,-2.293056 -0.157882,0 -0.519793,-0.08931 -0.804245,-0.198464 l -0.51719,-0.198464 -1.892914,1.539151 c -1.041103,0.846534 -3.043851,2.159874 -4.450553,2.918535 l -2.557638,1.379383 v 0.43411 c 0,0.238761 0.165205,0.536214 0.367128,0.661007 l 0.367126,0.226898 -0.219883,0.692796 -0.219887,0.692796 0.422272,0.508806 0.422271,0.508806 0.184341,2.296488 0.18434,2.29648 h -0.577465 -0.577466 v 0.51973 c 0,0.28585 -0.303614,1.19866 -0.674698,2.028465 -0.371083,0.82981 -0.853704,2.18343 -1.072494,3.00806 l -0.397795,1.4993 -0.77959,-0.005 c -0.428773,-0.003 -1.136777,-0.10054 -1.573339,-0.21753 l -0.79375,-0.21272 v -0.43253 c 0,-0.2379 -0.364924,-1.1322 -0.810945,-1.98734 l -0.810941,-1.5548 -1.278569,-0.63345 -1.278569,-0.633435 -1.204411,0.50324 -1.204412,0.503225 -0.612524,-0.34278 -0.612521,-0.342785 -0.450378,0.615925 -0.450377,0.61593 -1.287621,-0.20895 -1.287622,-0.20895 v 0.30657 c 0,0.16862 -0.498224,0.66135 -1.107168,1.09495 l -1.107168,0.78858 h -1.009499 -1.009498 v 0.51447 0.51447 l -1.087212,-0.21745 -1.087211,-0.21744 -0.621281,0.3325 c -0.650318,0.34804 -3.550652,4.01248 -3.559274,4.49697 -0.0028,0.15385 -0.875859,1.14514 -1.940278,2.20287 l -1.9353,1.92315 v 0.96166 0.96167 l -0.901622,0.70921 c -0.495893,0.39007 -1.640318,1.06681 -2.543168,1.50388 l -1.641546,0.79466 -1.653882,0.1009 -1.653882,0.1009 -0.432257,-0.52084 -0.432256,-0.52084 h -0.861941 c -0.474068,0 -1.167495,0.16353 -1.54095,0.36339 -0.373454,0.19987 -1.27583,0.38499 -2.005279,0.41138 l -1.326272,0.048 -0.441232,0.55877 -0.441231,0.55877 -0.370048,-0.61736 c -0.453486,-0.75656 -1.040545,-0.80632 -1.040545,-0.0882 v 0.52917 h -3.287359 -3.28736 l -1.770061,0.52565 -1.770061,0.52565 -0.668056,0.7382 c -0.367431,0.406 -1.187217,0.95511 -1.821747,1.22024 -0.634529,0.26512 -1.153096,0.6092 -1.152371,0.76462 7.41e-4,0.15542 0.315892,0.79852 0.700371,1.42911 l 0.699051,1.14653 h 1.690579 1.690579 l 0.695856,0.47653 c 0.382721,0.2621 1.132419,0.58262 1.665996,0.71228 l 0.970138,0.23574 v 0.82055 0.82055 l 0.705556,0.63852 c 0.388056,0.35119 0.705556,0.84645 0.705556,1.10059 0,0.25415 0.354171,0.65163 0.787047,0.8833 0.432876,0.23167 1.079399,0.79288 1.436716,1.24713 l 0.649668,0.82592 h 0.679951 0.679951 v 0.35278 c 0,0.19403 0.179197,0.35278 0.398215,0.35278 0.219019,0 1.013226,0.55562 1.764905,1.23472 0.75168,0.6791 1.602433,1.23472 1.890563,1.23472 h 0.523873 z m 94.078899,0.57438 c 0.30692,-0.11778 0.55802,-0.43528 0.55802,-0.70556 v -0.49142 h -0.52916 c -0.29104,0 -0.52917,0.0664 -0.52917,0.14753 0,0.0812 -0.0964,0.39865 -0.21413,0.70556 -0.23462,0.61141 -0.12288,0.6652 0.71444,0.34389 z m -105.461812,-0.6168 0.653913,-0.47815 -0.222637,-0.58019 -0.222636,-0.58018 h -0.83639 -0.83639 l -0.385805,0.84675 c -0.212192,0.46571 -0.29059,0.94196 -0.174218,1.05833 0.361981,0.36199 1.340871,0.23307 2.024163,-0.26656 z m -13.116824,-1.02116 c 0.643877,-0.48134 0.743589,-1.01114 0.659214,-3.50257 l -0.0559,-1.6505 -0.554365,-0.55437 -0.5543646,-0.55436 H 9.0034758 8.2517187 l -1.1633224,1.12754 -1.1633225,1.12753 v 0.58484 c 0,0.52254 0.3727933,1.05222 2.2842026,3.24551 0.6355528,0.72927 1.242037,0.78142 2.0513676,0.17638 z m 182.566106,0.0176 c 0.23283,-0.23283 0.42333,-0.55033 0.42333,-0.70555 v -0.28222 h -1.23472 -1.23472 v -0.31352 c 0,-0.17244 0.51594,-0.41556 1.14653,-0.54029 0.63059,-0.12472 1.45215,-0.45804 1.8257,-0.74071 l 0.67917,-0.51394 -0.46175,-0.86278 -0.46175,-0.86279 -0.92298,-0.3546 c -0.50764,-0.19503 -1.93686,-0.64206 -3.17605,-0.99341 l -2.25307,-0.6388 -0.56915,-0.85378 c -0.31303,-0.46959 -1.12381,-1.40826 -1.80174,-2.08595 l -1.23258,-1.23216 -1.76603,-0.78326 c -0.97131,-0.4308 -2.06844,-1.11931 -2.43806,-1.53003 l -0.67204,-0.74676 h -0.63891 c -0.3514,0 -1.2093,-0.27201 -1.90645,-0.60445 l -1.26754,-0.60445 -0.2933,0.47457 -0.2933,0.47457 -1.36154,-0.26777 c -0.74885,-0.14727 -2.23288,-0.23788 -3.29785,-0.20136 l -1.93629,0.0664 -0.62134,0.56231 c -0.34174,0.30927 -0.62135,0.79007 -0.62135,1.06844 0,0.67446 1.41692,1.82753 2.26376,1.84222 0.37194,0.006 1.70816,0.57894 2.96937,1.27219 l 2.29311,1.26045 0.64121,-0.16768 0.64121,-0.16768 1.37431,0.99554 1.3743,0.99554 0.37319,-0.37319 0.37319,-0.37319 2.00272,1.37169 c 1.1015,0.75442 2.54635,1.73517 3.21078,2.17942 0.66443,0.44426 1.52422,1.12391 1.91065,1.51033 0.38642,0.38642 1.16288,0.79465 1.72546,0.90717 0.56258,0.11251 1.31354,0.47537 1.6688,0.80634 1.49973,1.39721 2.8095,1.76936 3.56572,1.01314 z m -21.5135,-1.3682 0.45789,-0.7332 -0.41622,-0.50152 c -0.44345,-0.53432 -1.45693,-0.66795 -1.87734,-0.24754 -0.1397,0.1397 -0.56098,0.25876 -0.9362,0.26459 l -0.6822,0.0106 -0.0155,0.35278 -0.0155,0.35278 0.8671,0.10913 c 0.4769,0.06 1.0569,0.33784 1.28889,0.61736 0.56444,0.68012 0.78745,0.64238 1.32912,-0.22497 z m -151.072813,-1.20009 0.582451,-0.88893 -0.539077,-0.82273 -0.539076,-0.82274 -2.339559,-1.11754 c -1.286757,-0.61465 -2.49118,-1.11755 -2.676496,-1.11755 -0.185316,0 -0.654438,0.3175 -1.042494,0.70556 l -0.705556,0.70556 v 0.89327 c 0,0.4913 0.215304,1.40411 0.478453,2.02847 l 0.478454,1.1352 2.860224,0.0952 2.860225,0.0952 z m 77.054084,-0.46873 c 0,-0.15694 -0.227439,-0.5935 -0.505418,-0.97013 l -0.505417,-0.68479 -0.399207,0.3931 -0.399204,0.39309 0.577043,0.57704 c 0.615576,0.61558 1.232203,0.76155 1.232203,0.29169 z m 68.527089,-2.05781 0.61736,-0.17383 v -0.49297 c 0,-0.61424 -1.09506,-1.22337 -2.19931,-1.22337 -0.45902,0 -1.02243,-0.18785 -1.25203,-0.41745 l -0.41746,-0.41746 -0.2571,0.25712 -0.25711,0.2571 0.42761,0.68473 c 0.23519,0.37659 0.42762,1.01699 0.42762,1.4231 v 0.73837 l 1.14653,-0.23076 c 0.63059,-0.12691 1.42434,-0.30898 1.76389,-0.40458 z m 35.54236,-0.47906 v -0.35277 h 1.03751 1.03752 l 0.21803,0.35277 c 0.11991,0.19403 0.45214,0.35278 0.73827,0.35278 h 0.52024 l 0.72851,-1.23472 0.7285,-1.23472 h 1.00267 1.00267 l 0.22158,0.35853 0.22159,0.35853 0.3284,-0.20296 c 0.18062,-0.11163 0.3284,-0.35235 0.3284,-0.53492 v -0.33196 l -0.79375,-0.004 -0.79375,-0.004 -1.51464,-1.40672 -1.51463,-1.40671 h -0.66941 c -0.36817,0 -0.77391,0.16909 -0.90163,0.37576 l -0.23223,0.37576 -0.66039,-0.59764 -0.66038,-0.59764 0.16153,-1.80659 0.16152,-1.80659 -0.50931,-0.88195 c -0.28011,-0.48507 -0.67094,-1.23913 -0.86849,-1.67569 l -0.3592,-0.79375 h -0.49536 c -0.27245,0 -1.14968,-0.635 -1.94941,-1.41111 -0.79973,-0.77611 -1.62404,-1.41111 -1.8318,-1.41111 -0.20777,0 -1.04102,-0.38039 -1.85168,-0.84532 -0.81067,-0.46492 -1.87081,-0.96292 -2.35588,-1.10666 -0.48507,-0.14374 -1.53643,-0.70958 -2.33635,-1.25741 l -1.45441,-0.99606 -2.30991,-0.36901 -2.30991,-0.36901 -1.81508,0.38926 -1.81507,0.38927 -0.39708,0.87148 -0.39707,0.87148 0.6666,1.2378 c 0.76578,1.42199 7.29508,8.23976 7.8911,8.23976 h 0.39663 v 0.52916 0.52917 h 0.55368 c 0.30453,0 1.85235,1.01026 3.43959,2.24503 3.23083,2.51337 4.33152,3.14493 6.49586,3.72719 l 1.49331,0.40174 0.37119,0.69358 c 0.38995,0.72863 1.05192,0.94309 1.05192,0.34079 z m -105.833338,-3.175 c 0.414479,-0.58208 0.956134,-1.05833 1.203678,-1.05833 0.247544,0 1.308297,-0.83344 2.357229,-1.85208 l 1.907141,-1.85209 2.99862,0.0309 c 1.64924,0.017 3.44074,0.15562 3.98112,0.30807 l 0.9825,0.27718 0.66791,-0.60446 0.66791,-0.60445 0.73056,0.23188 0.73057,0.23187 0.34432,-0.90563 c 0.18937,-0.49811 0.507,-0.90564 0.70583,-0.90564 h 0.36151 v -0.67873 -0.67872 l -0.97014,-0.75033 c -0.53358,-0.41268 -1.79484,-1.38381 -2.80282,-2.15806 l -1.83267,-1.40772 -1.91735,-0.40217 -1.91734,-0.40216 -1.71805,1.0973 c -0.94492,0.60352 -2.162837,1.2072 -2.706501,1.34151 l -0.988469,0.24421 -0.717631,1.52669 c -0.394698,0.83969 -0.920807,1.69532 -1.16913,1.90141 l -0.451496,0.37471 -2.830463,0.35491 -2.830463,0.35491 -0.920965,-0.35015 -0.920966,-0.35015 v -0.82012 c 0,-0.94812 -0.606333,-1.6701 -1.393472,-1.65926 l -0.546805,0.008 -0.983301,1.39006 -0.983305,1.39006 -1.208991,0.22681 c -0.664943,0.12475 -1.376133,0.42821 -1.580419,0.67436 l -0.371437,0.44755 0.206615,0.48568 c 0.113637,0.26713 0.689977,0.86984 1.280753,1.33935 l 1.074141,0.85367 0.660824,-0.41269 c 0.363452,-0.22697 1.143755,-0.41268 1.734005,-0.41268 h 1.073178 l 2.080909,1.05044 c 1.144499,0.57774 2.18917,1.22561 2.321486,1.43971 0.259768,0.42031 2.302799,1.73971 2.697215,1.74187 0.132306,7.2e-4 0.579681,-0.47493 0.99416,-1.05702 z m 35.433408,-0.54038 c 0.37663,-0.28487 0.61475,-0.52889 0.52916,-0.54226 -0.0856,-0.0134 -0.59218,-0.0819 -1.12576,-0.15232 l -0.97014,-0.12801 v 0.4463 c 0,0.47468 0.33556,0.92403 0.67616,0.90546 0.11318,-0.006 0.51394,-0.2443 0.89058,-0.52917 z m -8.05743,-0.98461 0.61596,0.23637 -0.23763,-0.61926 c -0.1307,-0.3406 -0.23764,-0.68566 -0.23764,-0.7668 0,-0.0812 -0.28575,-0.14754 -0.635,-0.14754 -0.7483,0 -1.48166,0.6522 -1.48166,1.31769 v 0.47103 l 0.68,-0.36393 0.68,-0.36393 z m 38.24069,-0.95578 c 0,-0.20026 -0.23122,-0.91752 -0.51384,-1.59391 -0.28261,-0.67638 -0.49233,-1.34597 -0.46606,-1.48797 0.0263,-0.142 -0.25842,-0.31126 -0.63268,-0.37613 -0.94373,-0.1636 -1.56242,-1.06322 -1.56242,-2.27193 v -1.02031 l -0.41577,0.1386 c -0.22867,0.0762 -0.58585,0.41543 -0.79375,0.75379 l -0.37798,0.61521 0.57799,0.32943 c 0.31789,0.18118 0.6781,0.72833 0.80047,1.21588 l 0.22249,0.88645 h 0.50594 0.50593 l 0.70223,1.5875 c 0.63858,1.44361 1.44745,2.12728 1.44745,1.22339 z m -148.117558,-1.01664 0.832833,-0.67519 -0.240159,-0.24112 -0.24016,-0.24113 -1.063574,0.62827 -1.063572,0.62826 0.178024,0.28805 c 0.276309,0.44708 0.691925,0.3463 1.596608,-0.38714 z m 142.009178,-5.89397 0.21948,-0.57194 -1.37708,-1.1787 c -0.75739,-0.64829 -1.49432,-1.18467 -1.63762,-1.19195 -0.43364,-0.0221 -1.67973,1.17344 -1.67973,1.61151 0,0.22529 0.30411,0.48915 0.67581,0.58635 l 0.6758,0.17672 0.35882,-0.35881 0.35881,-0.35882 0.55288,0.21216 0.55288,0.21216 v 0.71663 0.71663 h 0.54024 0.54024 z m -62.108472,-0.76792 c 1.866794,-1.01528 6.480735,-4.83047 6.480735,-5.3588 0,-0.43839 -1.419739,-0.68949 -2.610089,-0.46162 -1.179512,0.2258 -2.412104,0.98172 -4.597156,2.81932 l -1.386417,1.16596 h -0.618282 -0.618282 l -0.229309,0.72248 -0.229309,0.72249 0.425122,0.51224 0.425118,0.51223 0.926942,-0.0169 c 0.50982,-0.009 1.423737,-0.28713 2.030927,-0.61736 z m -51.648459,-0.46638 c 0.406068,-0.21732 1.285525,-0.89201 1.95435,-1.49931 l 1.216046,-1.10417 1.197455,-2.41995 c 0.658604,-1.33097 1.197458,-2.64066 1.197458,-2.91042 v -0.49047 h 0.550587 0.550588 l 2.237306,-2.29306 2.237309,-2.29305 h 0.592893 0.592892 l -0.142864,-0.44098 -0.142861,-0.440965 -1.48016,-0.47636 -1.480161,-0.47637 -0.434848,0.20954 c -0.239165,0.11524 -0.672973,0.3509 -0.964014,0.52367 -0.291042,0.17278 -0.96573,0.51812 -1.499306,0.767415 -0.533576,0.2493 -0.976252,0.62488 -0.983728,0.83463 -0.0075,0.20975 -0.511552,0.69886 -1.120175,1.08692 l -1.106586,0.70555 -1.022128,2.46945 -1.022128,2.46945 -1.29728,1.23496 c -0.713504,0.67923 -2.038372,1.83017 -2.944153,2.55764 l -1.646871,1.32267 H 35.693065 35.06452 l 0.335139,0.32291 c 0.41087,0.39587 1.612765,0.624 3.621525,0.68739 l 1.522497,0.048 z m 115.085371,-0.7835 c -0.12549,-0.5 -0.45072,-1.0938 -0.72272,-1.31954 l -0.49456,-0.41045 v 0.80917 0.80917 l 0.5858,0.6473 c 0.72974,0.80636 0.92643,0.63952 0.63148,-0.53565 z m 15.94468,0.424 c 0.44179,-0.41504 1.16022,-0.93259 1.5965,-1.1501 l 0.79325,-0.39547 0.22462,-1.05477 c 0.33601,-1.57783 1.72476,-4.32362 2.29804,-4.5436 0.27687,-0.10625 0.50341,-0.40861 0.50341,-0.67192 0,-0.26331 0.39688,-0.85159 0.88195,-1.30729 l 0.88194,-0.82854 v -0.76578 -0.76578 l -0.70925,-0.64186 -0.70926,-0.64187 -0.84103,0.79011 -0.84103,0.79011 -0.26051,-0.42152 -0.26052,-0.42153 -1.17002,1.27715 c -0.64351,0.70244 -1.57223,1.80449 -2.06383,2.44901 l -0.89382,1.17185 0.15192,1.52715 0.15193,1.52714 -0.49758,0.96221 c -0.27366,0.52921 -0.75307,1.06025 -1.06534,1.18008 l -0.56777,0.21787 -0.71286,-0.38151 -0.71286,-0.38151 -0.84908,0.21311 -0.84909,0.21311 v 1.1692 c 0,0.64306 0.10583,1.27504 0.23519,1.40439 0.12935,0.12935 1.19068,0.23519 2.35851,0.23519 h 2.12333 z M 6.6306293,113.10081 c 0,-0.569 -0.3231314,-0.65377 -1.2038432,-0.31581 l -0.5559933,0.21336 0.1951826,0.31581 c 0.1073504,0.17369 0.5033136,0.31581 0.8799182,0.31581 h 0.6847357 z m 124.3938207,-0.59302 1.80354,-0.37832 0.65822,0.36836 0.65823,0.36836 1.53498,-1.62503 1.53499,-1.62503 -0.14842,-2.4028 -0.14842,-2.4028 h 0.49907 0.49907 l -0.11613,-0.61736 -0.11612,-0.61736 -0.78924,-0.34718 -0.78925,-0.34719 0.19657,-0.61933 0.19656,-0.61932 -1.1229,-2.106775 -1.1229,-2.10678 -1.21641,-0.40146 c -0.66903,-0.22079 -1.25453,-0.34594 -1.30112,-0.27809 -1.85272,2.6981 -4.99267,5.944175 -5.74983,5.944175 h -0.53425 l -0.1845,0.70556 c -0.10148,0.38806 -0.28506,0.72212 -0.40795,0.74237 -0.12289,0.0202 -0.81055,0.0738 -1.52814,0.11897 l -1.3047,0.0821 -1.69391,1.37232 c -1.75648,1.42301 -2.54537,2.25701 -2.56463,2.71128 -0.006,0.14552 0.28949,0.56529 0.65702,0.93282 l 0.66825,0.66825 1.44822,0.24467 1.44823,0.24468 0.27551,0.49231 0.27551,0.49231 1.39791,0.0941 1.3979,0.0941 0.54928,0.54681 0.54928,0.5468 1.39347,0.0514 c 0.76641,0.0282 2.20507,-0.11885 3.19701,-0.32692 z m 32.78946,-5.39298 c 0.37663,-0.28487 1.01737,-0.52299 1.42386,-0.52917 l 0.73907,-0.0112 0.63852,-0.70555 c 0.35119,-0.38806 0.81508,-0.70556 1.03087,-0.70556 0.2158,0 1.23153,-0.73408 2.25718,-1.6313 l 1.86482,-1.6313 -0.10699,-0.74995 -0.10699,-0.74995 -0.88195,0.059 c -4.97377,0.33282 -11.99444,2.67024 -11.99444,3.99335 0,0.27461 3.84664,3.17958 4.21027,3.17958 0.13254,0 0.54914,-0.23308 0.92578,-0.51795 z m 28.56564,-0.6815 0.67544,-0.49389 h -1.32749 -1.32747 l 0.40989,0.49389 c 0.22544,0.27164 0.51886,0.49389 0.65205,0.49389 0.13318,0 0.5461,-0.22225 0.91758,-0.49389 z M 44.053929,101.28275 c 0.178157,0 0.323924,-0.23812 0.323924,-0.52916 v -0.52917 h -0.444306 c -0.244369,0 -0.656963,0.34052 -0.916876,0.7567 l -0.472571,0.75671 0.592953,-0.22754 c 0.326122,-0.12515 0.738717,-0.22754 0.916876,-0.22754 z m -1.988104,-0.95971 c 0.116583,-0.30381 0.132694,-0.631655 0.0358,-0.728545 -0.272909,-0.27291 -1.251549,0.658545 -1.251549,1.191215 v 0.4749 l 0.50189,-0.1926 c 0.276041,-0.10592 0.597277,-0.44116 0.713859,-0.74497 z m 2.312028,-1.905705 v -0.66236 h -0.340367 c -0.187201,0 -0.512042,0.32078 -0.721868,0.71285 l -0.381504,0.71285 0.224109,0.36261 0.224113,0.36262 0.497759,-0.4131 c 0.273766,-0.22721 0.497758,-0.71117 0.497758,-1.07547 z m 30.222762,-0.16302 0.214503,-0.55899 -0.456857,-1.99864 c -0.25127,-1.099255 -0.630594,-2.158656 -0.842938,-2.354223 -0.212344,-0.195568 -0.765327,-1.10838 -1.228852,-2.028473 -0.867879,-1.722731 -1.001769,-1.822862 -1.950597,-1.458763 l -0.55802,0.214133 v 0.823381 c 0,0.45286 0.166458,0.926258 0.369909,1.051997 l 0.369908,0.228616 -0.413106,0.49776 -0.413103,0.497759 h -0.809897 c -0.445441,0 -1.061003,0.09636 -1.367913,0.214132 l -0.55802,0.214133 v 0.769663 0.769665 l 1.852083,1.05223 c 5.084717,2.88878 5.429807,3.01183 5.7929,2.06562 z m -18.873456,-1.08318 c 0.832468,-0.75337 0.815771,-1.25654 -0.05985,-1.80337 l -0.704984,-0.440272 -0.746012,-1.587067 -0.746008,-1.587068 -1.048276,-0.882067 -1.048279,-0.882067 -1.043619,0.61648 c -0.573991,0.339065 -1.278601,0.975111 -1.565804,1.413436 -0.2872,0.438325 -0.75299,0.796954 -1.035086,0.796954 h -0.5129 l -0.56026,0.855064 -0.560261,0.855064 0.528867,1.022713 c 0.290876,0.56249 0.743261,1.20064 1.0053,1.41812 l 0.476437,0.3954 2.104464,0.12956 c 1.157454,0.0713 2.726966,0.15957 3.487798,0.19626 l 1.383333,0.0667 z m 4.109096,-2.415573 c 0.221216,-0.485515 0.84201,-1.162147 1.379544,-1.503627 0.537531,-0.341479 1.732436,-1.166157 2.655338,-1.832617 l 1.678005,-1.211746 0.424113,-1.172866 0.424116,-1.172866 0.808295,-0.529617 0.808299,-0.529616 V 86.130788 85.45897 L 67.043826,84.699533 C 66.51025,84.281842 65.835562,83.489706 65.54452,82.93923 65.253479,82.388755 64.495567,81.369604 63.860271,80.674452 l -1.155083,-1.263914 h -0.520611 c -0.286336,0 -0.822237,0.333375 -1.19089,0.740833 -1.297852,1.43447 -3.899034,3.799732 -5.094418,4.632371 l -0.876762,0.610703 -0.377868,1.761942 -0.37787,1.761942 0.21833,1.684299 c 0.120082,0.926365 0.40893,1.922425 0.641886,2.213466 0.232957,0.291042 0.627712,1.045105 0.877235,1.675695 l 0.453676,1.146526 h 1.488077 1.488073 z m 86.847165,-5.044136 c 0,-0.758736 -0.97268,-2.179997 -1.95045,-2.849979 l -1.09183,-0.748131 h -0.80131 -0.80132 l 0.14077,0.422316 c 0.12165,0.364945 1.99201,1.628742 3.35761,2.268732 0.24253,0.113663 0.44097,0.427802 0.44097,0.698085 0,0.270282 0.15875,0.491423 0.35278,0.491423 0.19403,0 0.35278,-0.127101 0.35278,-0.282446 z m -9.78959,-4.204972 c -0.24253,-0.08662 -0.44097,-0.382386 -0.44097,-0.657258 0,-0.541434 -0.33345,-0.620418 -1.20587,-0.285637 l -0.55802,0.214133 v 0.529667 0.529667 l 0.86032,-0.215927 0.86033,-0.215928 0.23333,0.377543 0.23334,0.377544 0.22926,-0.248157 0.22925,-0.248157 z m 8.01267,-0.946369 c 0.17726,-0.466222 0.49341,-0.953441 0.70258,-1.08271 l 0.38029,-0.235034 -0.20297,-0.328401 c -0.11163,-0.180621 -0.43171,-0.328402 -0.71131,-0.328402 h -0.50834 v 0.684736 c 0,0.376605 -0.15875,0.782848 -0.35278,0.902764 -0.46264,0.285931 -0.45594,1.234723 0.009,1.234723 0.19883,0 0.50654,-0.381454 0.6838,-0.847676 z m -9.51197,-1.936803 v -0.667813 l -0.52917,-0.20306 -0.52917,-0.20306 v 0.635687 c 0,0.349628 0.10584,0.741521 0.23519,0.870872 0.43927,0.439273 0.82315,0.237517 0.82315,-0.432626 z M 71.598099,81.338027 c -0.06602,-0.381022 -0.343831,-0.943392 -0.617361,-1.249711 -0.27353,-0.30632 -0.499759,-0.861945 -0.50273,-1.234723 -0.0028,-0.372777 -0.144681,-0.897701 -0.314914,-1.166497 l -0.309509,-0.48872 -0.934918,0.234649 -0.934914,0.234649 -0.193424,0.50406 -0.193429,0.504061 1.531451,1.784466 1.531447,1.784466 0.529167,-0.106966 0.529167,-0.106967 z m 76.496431,-0.163099 c 0,-0.152235 0.41588,-0.381171 0.92418,-0.508747 0.50831,-0.127576 1.54018,-0.72698 2.29306,-1.332009 l 1.36887,-1.100052 v -0.646514 -0.646513 h 0.65088 0.65088 l 0.64606,-0.713891 0.64606,-0.713891 -0.34885,-0.348852 -0.34885,-0.348852 -1.13367,0.226735 -1.13368,0.226734 0.21245,0.669372 0.21245,0.669372 -1.03055,0.962684 c -0.56681,0.529476 -1.84089,1.342221 -2.83129,1.806101 l -1.80073,0.843418 -0.19534,0.509037 c -0.10743,0.279971 -0.11036,0.646529 -0.006,0.814573 l 0.18883,0.305535 0.51787,-0.198725 c 0.28482,-0.109299 0.51786,-0.32328 0.51786,-0.475515 z m -13.46922,-0.766619 c -0.062,-0.421365 -0.31117,-0.831469 -0.5537,-0.911342 l -0.44097,-0.145225 v 0.676157 c 0,0.732175 0.2851,1.146528 0.78889,1.146528 h 0.31851 z m 24.93449,-3.114438 c 0.11992,-0.194028 0.5168,-0.352778 0.88195,-0.352778 0.36515,0 0.77058,-0.172582 0.90094,-0.383516 l 0.23703,-0.383516 -0.36868,-0.368678 -0.36868,-0.368678 -1.06273,0.840388 c -0.5845,0.462214 -1.07152,0.959452 -1.08225,1.104973 -0.0286,0.387916 0.60844,0.322768 0.86242,-0.08819 z M 74.011187,76.088002 c 0,-0.469201 0.09636,-1.104201 0.214133,-1.411112 l 0.214132,-0.558019 h -0.870458 -0.870461 l -1.347495,-0.914436 c -0.741122,-0.502939 -1.848435,-0.995727 -2.460692,-1.095083 l -1.113197,-0.180646 -1.457297,0.743457 c -1.479928,0.755002 -2.186443,1.627261 -2.186443,2.699364 v 0.593485 l 0.79375,-0.188962 c 0.436563,-0.103928 1.530354,-0.472093 2.430646,-0.818144 l 1.6369,-0.629182 1.353848,1.041601 c 1.152144,0.88642 2.138768,1.330374 3.398051,1.529029 0.145521,0.02296 0.264583,-0.342152 0.264583,-0.811352 z m 127.781543,-5.165841 1.08004,-1.080042 -0.36994,-0.369943 -0.36994,-0.369943 -1.79142,0.595014 c -0.98528,0.327258 -1.88633,0.748581 -2.00233,0.936273 l -0.21091,0.341258 0.42634,0.513713 0.42635,0.513713 h 0.86589 0.86588 z m -24.06487,99.481849 c 0,-0.55119 0.68623,-1.74069 1.00422,-1.74069 0.15062,0 0.62481,0.32696 1.05375,0.72658 l 0.7799,0.72659 -0.20503,0.33174 -0.20503,0.33175 h -1.21391 -1.2139 z M 5.6428515,103.68165 c -0.5363879,-0.53639 -0.5491366,-1.34056 -0.021252,-1.34056 0.4104748,0 1.3303111,1.02112 1.3505884,1.49931 0.017584,0.41468 -0.8608032,0.30978 -1.3293364,-0.15875 z M 2.397296,100.80474 v -1.395225 l 0.79375,0.663645 c 0.9583055,0.80124 1.6756944,1.6198 1.6756944,1.91202 0,0.11814 -0.555625,0.21479 -1.2347222,0.21479 H 2.397296 Z M 168.64794,92.210602 c -0.54095,-0.19332 -1.66708,-2.685557 -1.98911,-4.402126 l -0.24004,-1.279561 -1.43204,-1.432037 -1.43204,-1.432037 1.63706,-0.795342 1.63705,-0.795342 1.0398,-1.689887 c 0.57189,-0.929438 1.0398,-1.975068 1.0398,-2.323622 0,-0.690905 1.22377,-2.177888 1.79238,-2.177888 0.19458,0 0.70433,-0.334579 1.13278,-0.743508 0.42845,-0.40893 1.37432,-1.125296 2.10192,-1.591926 1.44933,-0.929489 1.58315,-1.24276 0.80626,-1.887514 l -0.51665,-0.428783 -1.37801,-0.07083 -1.37801,-0.07083 -1.13108,-1.131084 -1.13109,-1.131084 h 0.5563 c 0.30597,0 0.55631,0.15875 0.55631,0.352778 0,0.194028 0.16812,0.352778 0.3736,0.352778 h 0.37359 l -0.21803,-0.352778 -0.21802,-0.352778 h 3.4627 3.4627 l 0.43867,1.405555 c 0.24127,0.773056 0.43868,1.780327 0.43868,2.23838 v 0.832824 l 0.64513,0.583843 0.64514,0.583843 h 1.1356 1.13559 l 0.84902,-0.916101 c 0.78969,-0.852089 1.5391,-2.554346 1.74146,-3.955638 l 0.0861,-0.596317 2.07817,-0.108244 2.07817,-0.108244 -1.22844,0.826016 -1.22845,0.826015 -0.35278,1.060203 c -0.19403,0.583111 -0.96506,1.892 -1.71341,2.908642 l -1.36062,1.848439 -1.00311,0.518726 c -0.5517,0.285299 -1.2383,0.518725 -1.52577,0.518725 h -0.52266 l -0.73874,-1.03747 c -0.40631,-0.570608 -1.0556,-1.138034 -1.44286,-1.260948 l -0.70412,-0.223478 -1.56976,0.599494 -1.56975,0.599494 0.2097,2.006296 0.2097,2.006295 -0.56815,1.098675 -0.56814,1.098676 -1.95463,0.244214 -1.95463,0.244215 -1.13408,0.764259 c -0.62375,0.420342 -1.1837,1.021879 -1.24434,1.336749 l -0.11025,0.572489 0.9278,0.860301 0.92779,0.860301 0.32451,2.584384 c 0.17848,1.421411 0.28573,2.614651 0.23834,2.651645 -0.0474,0.03699 -0.28274,-0.003 -0.52302,-0.08886 z m 3.9118,-11.303445 c 0.0908,-0.146999 0.26233,-0.821686 0.38107,-1.499306 l 0.21589,-1.232035 -0.32239,-0.48872 -0.32239,-0.48872 -0.83161,0.224601 -0.83162,0.224601 -0.61557,0.857279 -0.61558,0.85728 0.22368,0.582888 c 0.33248,0.866446 2.3388,1.576518 2.71852,0.962132 z M 11.569518,89.485525 c 0,-0.683146 0.509301,-0.955931 1.252381,-0.670784 l 0.610497,0.23427 -0.646088,0.47243 c -0.833946,0.609797 -1.21679,0.598497 -1.21679,-0.03592 z M 3.6058399,79.29314 C 3.4817065,78.969653 3.1590023,78.704982 2.8887194,78.704982 c -0.2702829,0 -0.4914234,-0.15875 -0.4914234,-0.352777 0,-0.510329 0.8147919,-0.432998 1.6082681,0.152639 L 4.6903515,79.010262 4.2609443,79.445779 3.831537,79.881297 Z M 210.40599,69.105252 l 0.19167,-0.310123 1.73315,0.07908 c 2.34987,0.107223 2.20447,0.505795 -0.19166,0.525408 l -1.92483,0.01575 z"
       id="path1563" />
    <path
       style="fill:#000000;stroke-width:0.352778"
       id="path1507"
       d="" />
  </g>
</svg>
